<svg width="1080" height="270" viewBox="0 0 1080 270" fill="none" xmlns="http://www.w3.org/2000/svg">
<g clip-path="url(#clip0_17_8)">
<mask id="mask0_17_8" style="mask-type:luminance" maskUnits="userSpaceOnUse" x="445" y="79" width="556" height="111">
<path d="M1001 79H445V190H1001V79Z" fill="white"/>
<path d="M464.52 187H447.613C447.124 187 446.879 186.756 446.879 186.268L447.173 83.2158C447.173 82.8252 447.369 82.6299 447.761 82.6299H476.722C485.935 82.6299 493.213 85.4375 498.554 91.0527C503.944 96.6191 506.64 104.212 506.64 113.831C506.64 120.862 505.243 126.99 502.45 132.215C499.607 137.391 495.932 141.395 491.424 144.227C486.916 147.059 482.015 148.475 476.722 148.475H465.256V186.268C465.256 186.756 465.01 187 464.52 187ZM476.722 100.428L465.256 100.574V130.311H476.722C479.908 130.311 482.677 128.797 485.029 125.77C487.382 122.693 488.557 118.714 488.557 113.831C488.557 109.925 487.504 106.727 485.396 104.236C483.289 101.697 480.398 100.428 476.722 100.428ZM544.716 188.465C539.375 188.465 534.45 187.098 529.942 184.363C525.482 181.629 521.881 177.991 519.136 173.45C516.441 168.86 515.093 163.831 515.093 158.362L515.24 110.828C515.24 105.262 516.588 100.257 519.283 95.8135C521.929 91.3213 525.507 87.7324 530.015 85.0469C534.523 82.3125 539.424 80.9453 544.716 80.9453C550.204 80.9453 555.129 82.2881 559.491 84.9736C563.902 87.6592 567.429 91.2725 570.076 95.8135C572.772 100.306 574.118 105.311 574.118 110.828L574.266 158.362C574.266 163.831 572.942 168.836 570.297 173.377C567.601 177.967 564.024 181.629 559.564 184.363C555.105 187.098 550.155 188.465 544.716 188.465ZM544.716 170.374C547.755 170.374 550.4 169.153 552.655 166.712C554.909 164.222 556.036 161.438 556.036 158.362L555.889 110.828C555.889 107.508 554.835 104.7 552.729 102.405C550.621 100.11 547.95 98.9629 544.716 98.9629C541.629 98.9629 538.983 100.086 536.777 102.332C534.572 104.578 533.469 107.41 533.469 110.828V158.362C533.469 161.634 534.572 164.466 536.777 166.858C538.983 169.202 541.629 170.374 544.716 170.374ZM603.3 187H586.247C585.856 187 585.659 186.756 585.659 186.268L585.953 83.2158C585.953 82.8252 586.15 82.6299 586.541 82.6299H616.973C622.412 82.6299 627.411 83.9482 631.969 86.585C636.526 89.2217 640.152 92.7617 642.848 97.2051C645.592 101.648 646.964 106.678 646.964 112.293C646.964 115.955 646.4 119.275 645.273 122.254C644.146 125.232 642.823 127.747 641.304 129.798C639.834 131.849 638.486 133.362 637.261 134.339C642.7 140.345 645.42 147.4 645.42 155.506L645.567 186.268C645.567 186.756 645.323 187 644.832 187H627.779C627.386 187 627.19 186.854 627.19 186.561V155.506C627.19 151.893 625.917 148.768 623.369 146.131C620.82 143.494 617.683 142.176 613.96 142.176H604.036L603.889 186.268C603.889 186.756 603.693 187 603.3 187ZM616.973 100.574H604.036V124.158H616.973C620.061 124.158 622.805 123.011 625.206 120.716C627.656 118.421 628.881 115.613 628.881 112.293C628.881 109.119 627.705 106.385 625.353 104.09C623 101.746 620.207 100.574 616.973 100.574ZM690.406 187H673.426C672.985 187 672.764 186.756 672.764 186.268V100.721H653.212C652.722 100.721 652.476 100.477 652.476 99.9883L652.624 83.2158C652.624 82.8252 652.82 82.6299 653.212 82.6299H710.4C710.939 82.6299 711.209 82.8252 711.209 83.2158V99.9883C711.209 100.477 711.013 100.721 710.621 100.721H690.847L690.994 186.268C690.994 186.756 690.798 187 690.406 187ZM736.201 187H719.295C718.804 187 718.559 186.756 718.559 186.268L718.853 83.2158C718.853 82.8252 719.049 82.6299 719.441 82.6299H767.662C768.151 82.6299 768.396 82.8252 768.396 83.2158V100.135C768.396 100.525 768.201 100.721 767.808 100.721H736.936V124.012H767.808C768.201 124.012 768.396 124.256 768.396 124.744L768.544 141.736C768.544 142.127 768.299 142.322 767.808 142.322H736.936V186.268C736.936 186.756 736.691 187 736.201 187ZM809.781 188.465C804.439 188.465 799.514 187.098 795.006 184.363C790.547 181.629 786.945 177.991 784.2 173.45C781.505 168.86 780.158 163.831 780.158 158.362L780.305 110.828C780.305 105.262 781.652 100.257 784.348 95.8135C786.994 91.3213 790.571 87.7324 795.079 85.0469C799.588 82.3125 804.488 80.9453 809.781 80.9453C815.27 80.9453 820.195 82.2881 824.555 84.9736C828.966 87.6592 832.495 91.2725 835.14 95.8135C837.836 100.306 839.184 105.311 839.184 110.828L839.33 158.362C839.33 163.831 838.008 168.836 835.361 173.377C832.665 177.967 829.089 181.629 824.63 184.363C820.17 187.098 815.221 188.465 809.781 188.465ZM809.781 170.374C812.819 170.374 815.466 169.153 817.72 166.712C819.974 164.222 821.101 161.438 821.101 158.362L820.954 110.828C820.954 107.508 819.901 104.7 817.793 102.405C815.686 100.11 813.015 98.9629 809.781 98.9629C806.694 98.9629 804.048 100.086 801.843 102.332C799.637 104.578 798.535 107.41 798.535 110.828V158.362C798.535 161.634 799.637 164.466 801.843 166.858C804.048 169.202 806.694 170.374 809.781 170.374ZM899.974 187H851.313C850.92 187 850.724 186.756 850.724 186.268L850.871 83.3623C850.871 82.874 851.116 82.6299 851.607 82.6299H868.366C868.856 82.6299 869.101 82.874 869.101 83.3623L868.954 168.543H899.974C900.463 168.543 900.708 168.787 900.708 169.275V186.268C900.708 186.756 900.463 187 899.974 187ZM928.347 187H911.293C910.804 187 910.559 186.756 910.559 186.268L910.705 83.2158C910.705 82.8252 910.902 82.6299 911.293 82.6299H928.2C928.593 82.6299 928.788 82.8252 928.788 83.2158L928.935 186.268C928.935 186.756 928.739 187 928.347 187ZM970.029 188.465C964.683 188.465 959.759 187.098 955.25 184.363C950.791 181.629 947.189 177.991 944.445 173.45C941.75 168.86 940.402 163.831 940.402 158.362L940.55 110.828C940.55 105.262 941.896 100.257 944.592 95.8135C947.239 91.3213 950.816 87.7324 955.324 85.0469C959.832 82.3125 964.733 80.9453 970.029 80.9453C975.518 80.9453 980.436 82.2881 984.802 84.9736C989.208 87.6592 992.74 91.2725 995.39 95.8135C998.08 100.306 999.424 105.311 999.424 110.828L999.575 158.362C999.575 163.831 998.25 168.836 995.601 173.377C992.911 177.967 989.338 181.629 984.872 184.363C980.416 187.098 975.468 188.465 970.029 188.465ZM970.029 170.374C973.06 170.374 975.709 169.153 977.967 166.712C980.215 164.222 981.349 161.438 981.349 158.362L981.199 110.828C981.199 107.508 980.145 104.7 978.037 102.405C975.93 100.11 973.26 98.9629 970.029 98.9629C966.938 98.9629 964.292 100.086 962.087 102.332C959.881 104.578 958.779 107.41 958.779 110.828V158.362C958.779 161.634 959.881 164.466 962.087 166.858C964.292 169.202 966.938 170.374 970.029 170.374Z" fill="black"/>
</mask>
<g mask="url(#mask0_17_8)">
<path d="M1045.16 4H-38.7401V304H1045.16V4Z" fill="#1D212A"/>
<path d="M446.879 186.268L445.875 186.265V186.268H446.879ZM447.173 83.2158L448.177 83.2187V83.2158H447.173ZM498.554 91.0527L497.825 91.7407L497.832 91.7471L498.554 91.0527ZM502.45 132.215L503.33 132.695L503.336 132.685L502.45 132.215ZM465.256 148.475V147.475H464.252V148.475H465.256ZM476.722 100.428V99.4277L476.71 99.4278L476.722 100.428ZM465.256 100.574L465.243 99.5743L464.252 99.587V100.574H465.256ZM465.256 130.311H464.252V131.311H465.256V130.311ZM485.029 125.77L485.823 126.382L485.827 126.376L485.029 125.77ZM485.396 104.236L484.623 104.874L484.629 104.881L485.396 104.236ZM464.52 186H447.613V188H464.52V186ZM447.613 186C447.523 186 447.641 185.978 447.772 186.11C447.905 186.241 447.882 186.358 447.882 186.268H445.875C445.875 186.666 445.976 187.148 446.353 187.524C446.73 187.9 447.214 188 447.613 188V186ZM447.882 186.27L448.177 83.2187L446.169 83.213L445.875 186.265L447.882 186.27ZM448.177 83.2158C448.177 83.1747 448.187 83.3275 448.03 83.4835C447.873 83.6395 447.72 83.6299 447.761 83.6299V81.6299C447.411 81.6299 446.963 81.7179 446.61 82.0693C446.258 82.4206 446.169 82.8664 446.169 83.2158H448.177ZM447.761 83.6299H476.722V81.6299H447.761V83.6299ZM476.722 83.6299C485.715 83.6299 492.708 86.3616 497.825 91.7407L499.282 90.3648C493.716 84.5134 486.155 81.6299 476.722 81.6299V83.6299ZM497.832 91.7471C503.001 97.0842 505.636 104.405 505.636 113.831H507.643C507.643 104.019 504.889 96.154 499.276 90.3584L497.832 91.7471ZM505.636 113.831C505.636 120.729 504.266 126.69 501.565 131.745L503.336 132.685C506.219 127.291 507.643 120.996 507.643 113.831H505.636ZM501.57 131.735C498.8 136.778 495.237 140.649 490.889 143.381L491.959 145.072C496.628 142.14 500.415 138.003 503.33 132.695L501.57 131.735ZM490.889 143.381C486.54 146.113 481.824 147.475 476.722 147.475V149.475C482.206 149.475 487.291 148.004 491.959 145.072L490.889 143.381ZM476.722 147.475H465.256V149.475H476.722V147.475ZM464.252 148.475V186.268H466.26V148.475H464.252ZM464.252 186.268C464.252 186.358 464.23 186.241 464.362 186.11C464.494 185.978 464.611 186 464.52 186V188C464.92 188 465.405 187.9 465.782 187.524C466.158 187.148 466.26 186.666 466.26 186.268H464.252ZM476.71 99.4278L465.243 99.5743L465.268 101.574L476.735 101.428L476.71 99.4278ZM464.252 100.574V130.311H466.26V100.574H464.252ZM465.256 131.311H476.722V129.311H465.256V131.311ZM476.722 131.311C480.283 131.311 483.324 129.597 485.822 126.382L484.235 125.157C482.029 127.996 479.532 129.311 476.722 129.311V131.311ZM485.827 126.376C488.344 123.084 489.56 118.875 489.56 113.831H487.553C487.553 118.553 486.418 122.303 484.23 125.163L485.827 126.376ZM489.56 113.831C489.56 109.738 488.452 106.297 486.164 103.592L484.629 104.881C486.555 107.157 487.553 110.112 487.553 113.831H489.56ZM486.17 103.599C483.849 100.803 480.659 99.4277 476.722 99.4277V101.428C480.136 101.428 482.729 102.592 484.623 104.874L486.17 103.599ZM529.942 184.363L529.416 185.215L529.42 185.217L529.942 184.363ZM519.136 173.45L518.27 173.955L518.276 173.966L519.136 173.45ZM515.093 158.362L514.09 158.359V158.362H515.093ZM515.24 110.828L516.243 110.831V110.828H515.24ZM519.283 95.8135L520.142 96.3308L520.148 96.3197L519.283 95.8135ZM530.015 85.0469L530.53 85.9052L530.537 85.9011L530.015 85.0469ZM559.491 84.9736L558.963 85.8243L558.968 85.8269L559.491 84.9736ZM570.076 95.8135L569.208 96.3157L569.215 96.3266L570.076 95.8135ZM574.118 110.828H573.115V110.831L574.118 110.828ZM574.266 158.362H575.27V158.359L574.266 158.362ZM570.297 173.377L571.163 173.882L571.165 173.879L570.297 173.377ZM552.655 166.712L553.394 167.389L553.4 167.382L552.655 166.712ZM556.036 158.362H557.04V158.359L556.036 158.362ZM555.889 110.828H554.885V110.831L555.889 110.828ZM536.777 166.858L536.039 167.535L536.046 167.542L536.777 166.858ZM544.716 187.465C539.556 187.465 534.812 186.147 530.464 183.509L529.42 185.217C534.088 188.048 539.193 189.465 544.716 189.465V187.465ZM530.467 183.512C526.147 180.862 522.658 177.341 519.996 172.934L518.276 173.966C521.102 178.642 524.817 182.395 529.416 185.215L530.467 183.512ZM520.002 172.945C517.4 168.513 516.097 163.659 516.097 158.362H514.09C514.09 164.003 515.482 169.208 518.27 173.955L520.002 172.945ZM516.097 158.365L516.243 110.831L514.236 110.825L514.09 158.359L516.097 158.365ZM516.243 110.828C516.243 105.43 517.548 100.607 520.141 96.3307L518.424 95.2962C515.627 99.9069 514.236 105.093 514.236 110.828H516.243ZM520.148 96.3197C522.709 91.9731 526.165 88.505 530.53 85.9052L529.5 84.1886C524.847 86.9599 521.149 90.6695 518.417 95.3073L520.148 96.3197ZM530.537 85.9011C534.887 83.2623 539.607 81.9453 544.716 81.9453V79.9453C539.24 79.9453 534.159 81.3627 529.493 84.1927L530.537 85.9011ZM544.716 81.9453C550.032 81.9453 554.772 83.2433 558.963 85.8243L560.019 84.123C555.487 81.3329 550.377 79.9453 544.716 79.9453V81.9453ZM558.968 85.8269C563.232 88.424 566.644 91.9155 569.208 96.3157L570.944 95.3113C568.215 90.6295 564.57 86.8943 560.015 84.1204L558.968 85.8269ZM569.215 96.3266C571.811 100.655 573.115 105.481 573.115 110.828H575.122C575.122 105.14 573.731 99.9562 570.937 95.3004L569.215 96.3266ZM573.115 110.831L573.262 158.365L575.27 158.359L575.122 110.825L573.115 110.831ZM573.262 158.362C573.262 163.662 571.982 168.493 569.429 172.875L571.165 173.879C573.904 169.179 575.27 164 575.27 158.362H573.262ZM569.431 172.872C566.816 177.323 563.355 180.865 559.038 183.512L560.09 185.215C564.693 182.393 568.386 178.611 571.163 173.882L569.431 172.872ZM559.038 183.512C554.744 186.145 549.978 187.465 544.716 187.465V189.465C550.334 189.465 555.466 188.05 560.09 185.215L559.038 183.512ZM544.716 171.374C548.064 171.374 550.97 170.014 553.394 167.389L551.917 166.035C549.832 168.292 547.446 169.374 544.716 169.374V171.374ZM553.4 167.382C555.805 164.726 557.04 161.709 557.04 158.362H555.033C555.033 161.168 554.014 163.718 551.91 166.042L553.4 167.382ZM557.04 158.359L556.893 110.825L554.885 110.831L555.033 158.365L557.04 158.359ZM556.893 110.828C556.893 107.276 555.757 104.223 553.469 101.73L551.988 103.08C553.914 105.178 554.885 107.739 554.885 110.828H556.893ZM553.469 101.73C551.164 99.22 548.22 97.9629 544.716 97.9629V99.9629C547.68 99.9629 550.078 101.001 551.988 103.08L553.469 101.73ZM544.716 97.9629C541.353 97.9629 538.449 99.199 536.06 101.633L537.495 103.031C539.516 100.973 541.906 99.9629 544.716 99.9629V97.9629ZM536.06 101.633C533.654 104.083 532.466 107.174 532.466 110.828H534.473C534.473 107.646 535.491 105.073 537.495 103.031L536.06 101.633ZM532.466 110.828V158.362H534.473V110.828H532.466ZM532.466 158.362C532.466 161.882 533.662 164.956 536.039 167.535L537.517 166.182C535.483 163.975 534.473 161.385 534.473 158.362H532.466ZM536.046 167.542C538.431 170.078 541.338 171.374 544.716 171.374V169.374C541.92 169.374 539.534 168.327 537.51 166.174L536.046 167.542ZM585.659 186.268L584.655 186.265V186.268H585.659ZM585.953 83.2158L586.957 83.2187V83.2158H585.953ZM642.848 97.2051L641.989 97.7224L641.993 97.7292L642.848 97.2051ZM641.304 129.798L640.496 129.204L640.491 129.21L640.487 129.217L641.304 129.798ZM637.261 134.339L636.634 133.558L635.802 134.221L636.516 135.009L637.261 134.339ZM645.42 155.506H644.416V155.511L645.42 155.506ZM645.567 186.268H646.571V186.263L645.567 186.268ZM604.036 142.176V141.176H603.035L603.033 142.172L604.036 142.176ZM603.889 186.268L602.885 186.264V186.268H603.889ZM604.036 100.574V99.5742H603.033V100.574H604.036ZM604.036 124.158H603.033V125.158H604.036V124.158ZM625.206 120.716L624.519 119.987L624.511 119.994L625.206 120.716ZM625.353 104.09L624.643 104.797L624.65 104.804L625.353 104.09ZM603.3 186H586.247V188H603.3V186ZM586.247 186C586.252 186 586.302 186.001 586.377 186.031C586.456 186.064 586.532 186.12 586.59 186.192C586.695 186.323 586.663 186.405 586.663 186.268H584.655C584.655 186.619 584.722 187.067 585.023 187.442C585.358 187.859 585.83 188 586.247 188V186ZM586.663 186.27L586.957 83.2187L584.949 83.213L584.655 186.265L586.663 186.27ZM586.957 83.2158C586.957 83.1747 586.967 83.3275 586.81 83.4835C586.654 83.6395 586.5 83.6299 586.541 83.6299V81.6299C586.191 81.6299 585.743 81.7179 585.391 82.0693C585.038 82.4206 584.949 82.8664 584.949 83.2158H586.957ZM586.541 83.6299H616.973V81.6299H586.541V83.6299ZM616.973 83.6299C622.242 83.6299 627.065 84.9045 631.465 87.4498L632.472 85.7202C627.756 82.992 622.584 81.6299 616.973 81.6299V83.6299ZM631.465 87.4498C635.878 90.0032 639.381 93.4245 641.989 97.7224L643.707 96.6878C640.923 92.0991 637.174 88.4402 632.472 85.7202L631.465 87.4498ZM641.993 97.7292C644.632 102.003 645.96 106.848 645.96 112.293H647.967C647.967 106.507 646.551 101.294 643.702 96.681L641.993 97.7292ZM645.96 112.293C645.96 115.852 645.413 119.051 644.334 121.901L646.212 122.607C647.388 119.5 647.967 116.058 647.967 112.293H645.96ZM644.334 121.901C643.232 124.814 641.949 127.243 640.496 129.204L642.111 130.392C643.697 128.251 645.061 125.651 646.212 122.607L644.334 121.901ZM640.487 129.217C639.042 131.232 637.756 132.663 636.634 133.558L637.888 135.12C639.216 134.062 640.625 132.465 642.12 130.379L640.487 129.217ZM636.516 135.009C641.789 140.831 644.416 147.647 644.416 155.506H646.424C646.424 147.153 643.612 139.859 638.006 133.669L636.516 135.009ZM644.416 155.511L644.564 186.272L646.571 186.263L646.424 155.501L644.416 155.511ZM644.564 186.268C644.564 186.358 644.542 186.241 644.674 186.11C644.806 185.978 644.922 186 644.832 186V188C645.232 188 645.716 187.9 646.093 187.524C646.47 187.148 646.571 186.666 646.571 186.268H644.564ZM644.832 186H627.779V188H644.832V186ZM627.779 186C627.679 186 627.788 185.976 627.94 186.09C628.025 186.154 628.099 186.243 628.145 186.347C628.188 186.444 628.194 186.524 628.194 186.561H626.187C626.187 186.951 626.332 187.389 626.736 187.69C627.084 187.95 627.486 188 627.779 188V186ZM628.194 186.561V155.506H626.187V186.561H628.194ZM628.194 155.506C628.194 151.63 626.817 148.258 624.091 145.437L622.645 146.825C625.016 149.278 626.187 152.155 626.187 155.506H628.194ZM624.091 145.437C621.35 142.602 617.952 141.176 613.96 141.176V143.176C617.415 143.176 620.29 144.387 622.645 146.825L624.091 145.437ZM613.96 141.176H604.036V143.176H613.96V141.176ZM603.033 142.172L602.885 186.264L604.892 186.271L605.04 142.179L603.033 142.172ZM602.885 186.268C602.885 186.405 602.854 186.323 602.958 186.192C603.016 186.12 603.093 186.064 603.172 186.031C603.245 186.001 603.296 186 603.3 186V188C603.718 188 604.191 187.859 604.526 187.442C604.827 187.067 604.892 186.619 604.892 186.268H602.885ZM616.973 99.5742H604.036V101.574H616.973V99.5742ZM603.033 100.574V124.158H605.04V100.574H603.033ZM604.036 125.158H616.973V123.158H604.036V125.158ZM616.973 125.158C620.341 125.158 623.329 123.896 625.901 121.438L624.511 119.994C622.281 122.126 619.78 123.158 616.973 123.158V125.158ZM625.894 121.444C628.543 118.962 629.885 115.892 629.885 112.293H627.878C627.878 115.334 626.769 117.879 624.519 119.987L625.894 121.444ZM629.885 112.293C629.885 108.84 628.592 105.851 626.055 103.375L624.65 104.804C626.817 106.918 627.878 109.398 627.878 112.293H629.885ZM626.062 103.383C623.528 100.857 620.482 99.5742 616.973 99.5742V101.574C619.933 101.574 622.473 102.635 624.643 104.797L626.062 103.383ZM672.764 100.721H673.768V99.7207H672.764V100.721ZM652.476 99.9883L651.473 99.9795V99.9883H652.476ZM652.624 83.2158L653.627 83.2246V83.2158H652.624ZM690.847 100.721V99.7207H689.842L689.844 100.722L690.847 100.721ZM690.994 186.268H691.998V186.266L690.994 186.268ZM690.406 186H673.426V188H690.406V186ZM673.426 186C673.407 186 673.433 185.997 673.485 186.016C673.544 186.038 673.614 186.08 673.676 186.148C673.796 186.281 673.768 186.382 673.768 186.268H671.761C671.761 186.641 671.843 187.108 672.184 187.486C672.543 187.883 673.022 188 673.426 188V186ZM673.768 186.268V100.721H671.761V186.268H673.768ZM672.764 99.7207H653.212V101.721H672.764V99.7207ZM653.212 99.7207C653.122 99.7207 653.238 99.6989 653.371 99.8305C653.502 99.9621 653.48 100.078 653.48 99.9883H651.473C651.473 100.387 651.574 100.869 651.95 101.245C652.328 101.62 652.813 101.721 653.212 101.721V99.7207ZM653.48 99.997L653.627 83.2246L651.62 83.2071L651.474 99.9795L653.48 99.997ZM653.627 83.2158C653.627 83.1747 653.638 83.3275 653.481 83.4835C653.324 83.6395 653.171 83.6299 653.212 83.6299V81.6299C652.861 81.6299 652.414 81.7179 652.061 82.0693C651.709 82.4206 651.62 82.8664 651.62 83.2158H653.627ZM653.212 83.6299H710.4V81.6299H653.212V83.6299ZM710.4 83.6299C710.477 83.6299 710.512 83.6372 710.517 83.6384C710.521 83.6394 710.478 83.6297 710.416 83.5851C710.349 83.5361 710.286 83.4638 710.246 83.3761C710.208 83.2939 710.205 83.2321 710.205 83.2158H712.212C712.212 82.7648 712.04 82.2883 711.597 81.9676C711.214 81.69 710.761 81.6299 710.4 81.6299V83.6299ZM710.205 83.2158V99.9883H712.212V83.2158H710.205ZM710.205 99.9883C710.205 100.126 710.173 100.044 710.278 99.9129C710.335 99.8407 710.412 99.7849 710.492 99.7518C710.565 99.7213 710.615 99.7207 710.621 99.7207V101.721C711.038 101.721 711.51 101.58 711.845 101.162C712.146 100.788 712.212 100.339 712.212 99.9883H710.205ZM710.621 99.7207H690.847V101.721H710.621V99.7207ZM689.844 100.722L689.99 186.269L691.998 186.266L691.851 100.719L689.844 100.722ZM689.99 186.269C689.99 186.406 689.959 186.323 690.064 186.192C690.122 186.12 690.198 186.064 690.277 186.031C690.351 186.001 690.402 186 690.406 186V188C690.823 188 691.296 187.859 691.631 187.442C691.932 187.067 691.998 186.619 691.998 186.268L689.99 186.269ZM718.559 186.268L717.555 186.265V186.268H718.559ZM718.853 83.2158L719.857 83.2187V83.2158H718.853ZM736.936 100.721V99.7207H735.933V100.721H736.936ZM736.936 124.012H735.933V125.012H736.936V124.012ZM768.396 124.744H767.393V124.753L768.396 124.744ZM768.544 141.736H769.547V141.728L768.544 141.736ZM736.936 142.322V141.322H735.933V142.322H736.936ZM736.201 186H719.295V188H736.201V186ZM719.295 186C719.204 186 719.321 185.978 719.452 186.11C719.585 186.241 719.563 186.358 719.563 186.268H717.555C717.555 186.666 717.656 187.148 718.033 187.524C718.411 187.9 718.894 188 719.295 188V186ZM719.563 186.27L719.857 83.2187L717.85 83.213L717.555 186.265L719.563 186.27ZM719.857 83.2158C719.857 83.1747 719.867 83.3275 719.71 83.4835C719.554 83.6395 719.4 83.6299 719.441 83.6299V81.6299C719.091 81.6299 718.643 81.7179 718.291 82.0693C717.938 82.4206 717.85 82.8664 717.85 83.2158H719.857ZM719.441 83.6299H767.662V81.6299H719.441V83.6299ZM767.662 83.6299C767.799 83.6299 767.717 83.6617 767.586 83.5572C767.513 83.4995 767.458 83.4234 767.425 83.3441C767.394 83.2708 767.393 83.2206 767.393 83.2158H769.4C769.4 82.7998 769.258 82.3294 768.84 81.9955C768.464 81.6957 768.014 81.6299 767.662 81.6299V83.6299ZM767.393 83.2158V100.135H769.4V83.2158H767.393ZM767.393 100.135C767.393 100.176 767.384 100.023 767.54 99.8671C767.697 99.7111 767.85 99.7207 767.808 99.7207V101.721C768.159 101.721 768.607 101.633 768.959 101.281C769.312 100.93 769.4 100.484 769.4 100.135H767.393ZM767.808 99.7207H736.936V101.721H767.808V99.7207ZM735.933 100.721V124.012H737.94V100.721H735.933ZM736.936 125.012H767.808V123.012H736.936V125.012ZM767.808 125.012C767.804 125.012 767.753 125.011 767.68 124.981C767.6 124.948 767.524 124.892 767.466 124.82C767.362 124.689 767.393 124.607 767.393 124.744H769.4C769.4 124.393 769.335 123.945 769.034 123.57C768.698 123.153 768.226 123.012 767.808 123.012V125.012ZM767.393 124.753L767.54 141.745L769.547 141.728L769.4 124.736L767.393 124.753ZM767.54 141.736C767.54 141.732 767.54 141.681 767.571 141.608C767.604 141.529 767.661 141.453 767.733 141.395C767.864 141.29 767.947 141.322 767.808 141.322V143.322C768.16 143.322 768.611 143.256 768.986 142.957C769.406 142.623 769.547 142.152 769.547 141.736H767.54ZM767.808 141.322H736.936V143.322H767.808V141.322ZM735.933 142.322V186.268H737.94V142.322H735.933ZM735.933 186.268C735.933 186.358 735.91 186.241 736.043 186.11C736.174 185.978 736.291 186 736.201 186V188C736.601 188 737.085 187.9 737.462 187.524C737.839 187.148 737.94 186.666 737.94 186.268H735.933ZM795.006 184.363L794.48 185.215L794.484 185.217L795.006 184.363ZM784.2 173.45L783.334 173.955L783.341 173.966L784.2 173.45ZM780.158 158.362L779.154 158.359V158.362H780.158ZM780.305 110.828L781.309 110.831V110.828H780.305ZM784.348 95.8135L785.207 96.3308L785.213 96.3197L784.348 95.8135ZM795.079 85.0469L795.594 85.9052L795.601 85.9011L795.079 85.0469ZM824.555 84.9736L824.028 85.8243L824.032 85.8269L824.555 84.9736ZM835.14 95.8135L834.272 96.3157L834.279 96.3266L835.14 95.8135ZM839.184 110.828H838.18V110.831L839.184 110.828ZM839.33 158.362H840.334V158.359L839.33 158.362ZM835.361 173.377L836.227 173.882L836.229 173.879L835.361 173.377ZM817.72 166.712L818.458 167.389L818.464 167.382L817.72 166.712ZM821.101 158.362H822.105V158.359L821.101 158.362ZM820.954 110.828H819.951V110.831L820.954 110.828ZM801.843 166.858L801.103 167.535L801.11 167.542L801.843 166.858ZM809.781 187.465C804.622 187.465 799.878 186.147 795.528 183.509L794.484 185.217C799.152 188.048 804.257 189.465 809.781 189.465V187.465ZM795.532 183.512C791.211 180.862 787.723 177.341 785.06 172.934L783.341 173.966C786.166 178.642 789.882 182.395 794.48 185.215L795.532 183.512ZM785.067 172.945C782.464 168.513 781.161 163.659 781.161 158.362H779.154C779.154 164.003 780.547 169.208 783.334 173.955L785.067 172.945ZM781.161 158.365L781.309 110.831L779.302 110.825L779.154 158.359L781.161 158.365ZM781.309 110.828C781.309 105.43 782.612 100.607 785.207 96.3308L783.489 95.2962C780.692 99.9069 779.302 105.093 779.302 110.828H781.309ZM785.213 96.3197C787.774 91.9731 791.23 88.505 795.594 85.9052L794.564 84.1886C789.913 86.9599 786.214 90.6695 783.483 95.3073L785.213 96.3197ZM795.601 85.9011C799.952 83.2623 804.672 81.9453 809.781 81.9453V79.9453C804.305 79.9453 799.224 81.3627 794.557 84.1927L795.601 85.9011ZM809.781 81.9453C815.096 81.9453 819.836 83.2433 824.028 85.8243L825.083 84.123C820.552 81.3329 815.443 79.9453 809.781 79.9453V81.9453ZM824.032 85.8269C828.298 88.424 831.709 91.9155 834.272 96.3157L836.009 95.3113C833.281 90.6295 829.635 86.8943 825.079 84.1204L824.032 85.8269ZM834.279 96.3266C836.877 100.655 838.18 105.481 838.18 110.828H840.188C840.188 105.14 838.796 99.9562 836.003 95.3004L834.279 96.3266ZM838.18 110.831L838.327 158.365L840.334 158.359L840.188 110.825L838.18 110.831ZM838.327 158.362C838.327 163.662 837.047 168.493 834.493 172.875L836.229 173.879C838.968 169.179 840.334 164 840.334 158.362H838.327ZM834.495 172.872C831.882 177.323 828.419 180.865 824.104 183.512L825.155 185.215C829.758 182.393 833.45 178.611 836.227 173.882L834.495 172.872ZM824.104 183.512C819.808 186.145 815.042 187.465 809.781 187.465V189.465C815.398 189.465 820.531 188.05 825.155 185.215L824.104 183.512ZM809.781 171.374C813.128 171.374 816.035 170.014 818.458 167.389L816.981 166.035C814.897 168.292 812.51 169.374 809.781 169.374V171.374ZM818.464 167.382C820.869 164.726 822.105 161.709 822.105 158.362H820.097C820.097 161.168 819.079 163.718 816.974 166.042L818.464 167.382ZM822.105 158.359L821.958 110.825L819.951 110.831L820.097 158.365L822.105 158.359ZM821.958 110.828C821.958 107.276 820.822 104.223 818.534 101.73L817.052 103.08C818.978 105.178 819.951 107.739 819.951 110.828H821.958ZM818.534 101.73C816.228 99.22 813.286 97.9629 809.781 97.9629V99.9629C812.745 99.9629 815.143 101.001 817.052 103.08L818.534 101.73ZM809.781 97.9629C806.417 97.9629 803.515 99.199 801.125 101.633L802.559 103.031C804.581 100.973 806.97 99.9629 809.781 99.9629V97.9629ZM801.125 101.633C798.719 104.083 797.531 107.174 797.531 110.828H799.538C799.538 107.646 800.555 105.073 802.559 103.031L801.125 101.633ZM797.531 110.828V158.362H799.538V110.828H797.531ZM797.531 158.362C797.531 161.882 798.726 164.956 801.103 167.535L802.581 166.182C800.548 163.975 799.538 161.385 799.538 158.362H797.531ZM801.11 167.542C803.496 170.078 806.403 171.374 809.781 171.374V169.374C806.984 169.374 804.6 168.327 802.574 166.174L801.11 167.542ZM850.724 186.268L849.721 186.266V186.268H850.724ZM850.871 83.3623L851.875 83.3637V83.3623H850.871ZM869.101 83.3623L870.104 83.364V83.3623H869.101ZM868.954 168.543L867.95 168.541L867.948 169.543H868.954V168.543ZM899.974 186H851.313V188H899.974V186ZM851.313 186C851.317 186 851.368 186.001 851.441 186.031C851.52 186.064 851.597 186.12 851.655 186.192C851.76 186.323 851.728 186.405 851.728 186.268H849.721C849.721 186.619 849.786 187.067 850.087 187.442C850.422 187.859 850.895 188 851.313 188V186ZM851.728 186.268L851.875 83.3637L849.867 83.3609L849.721 186.266L851.728 186.268ZM851.875 83.3623C851.875 83.2723 851.897 83.3885 851.764 83.5201C851.633 83.6517 851.516 83.6299 851.607 83.6299V81.6299C851.206 81.6299 850.722 81.7301 850.345 82.1059C849.968 82.4816 849.867 82.964 849.867 83.3623H851.875ZM851.607 83.6299H868.366V81.6299H851.607V83.6299ZM868.366 83.6299C868.456 83.6299 868.34 83.6517 868.207 83.5201C868.075 83.3885 868.097 83.2723 868.097 83.3623H870.104C870.104 82.964 870.004 82.4816 869.626 82.1059C869.249 81.7301 868.765 81.6299 868.366 81.6299V83.6299ZM868.097 83.3606L867.95 168.541L869.958 168.545L870.104 83.364L868.097 83.3606ZM868.954 169.543H899.974V167.543H868.954V169.543ZM899.974 169.543C900.064 169.543 899.948 169.565 899.815 169.433C899.683 169.302 899.705 169.185 899.705 169.275H901.712C901.712 168.877 901.612 168.395 901.234 168.019C900.858 167.643 900.373 167.543 899.974 167.543V169.543ZM899.705 169.275V186.268H901.712V169.275H899.705ZM899.705 186.268C899.705 186.358 899.683 186.241 899.815 186.11C899.948 185.978 900.064 186 899.974 186V188C900.373 188 900.858 187.9 901.234 187.524C901.612 187.148 901.712 186.666 901.712 186.268H899.705ZM910.559 186.268L909.555 186.266V186.268H910.559ZM910.705 83.2158L911.709 83.2172V83.2158H910.705ZM928.788 83.2158H927.785V83.2172L928.788 83.2158ZM928.935 186.268H929.938V186.266L928.935 186.268ZM928.347 186H911.293V188H928.347V186ZM911.293 186C911.203 186 911.319 185.978 911.452 186.11C911.584 186.241 911.562 186.358 911.562 186.268H909.555C909.555 186.666 909.655 187.148 910.033 187.524C910.41 187.9 910.894 188 911.293 188V186ZM911.562 186.268L911.709 83.2172L909.702 83.2144L909.555 186.266L911.562 186.268ZM911.709 83.2158C911.709 83.1747 911.719 83.3275 911.562 83.4835C911.406 83.6395 911.252 83.6299 911.293 83.6299V81.6299C910.943 81.6299 910.495 81.7179 910.143 82.0693C909.79 82.4206 909.702 82.8664 909.702 83.2158H911.709ZM911.293 83.6299H928.2V81.6299H911.293V83.6299ZM928.2 83.6299C928.241 83.6299 928.088 83.6395 927.931 83.4835C927.775 83.3275 927.785 83.1747 927.785 83.2158H929.792C929.792 82.8664 929.704 82.4206 929.35 82.0693C928.998 81.7179 928.55 81.6299 928.2 81.6299V83.6299ZM927.785 83.2172L927.931 186.269L929.938 186.266L929.792 83.2144L927.785 83.2172ZM927.931 186.269C927.931 186.406 927.899 186.323 928.004 186.192C928.063 186.12 928.139 186.064 928.218 186.031C928.292 186.001 928.343 186 928.347 186V188C928.764 188 929.237 187.859 929.572 187.442C929.873 187.067 929.938 186.619 929.938 186.268L927.931 186.269ZM955.25 184.363L954.725 185.215L954.729 185.217L955.25 184.363ZM944.445 173.45L943.578 173.955L943.586 173.966L944.445 173.45ZM940.402 158.362L939.398 158.359V158.362H940.402ZM940.55 110.828L941.553 110.831V110.828H940.55ZM944.592 95.8135L945.451 96.3308L945.457 96.3197L944.592 95.8135ZM955.324 85.0469L955.839 85.9052L955.846 85.9011L955.324 85.0469ZM984.802 84.9736L984.27 85.8243L984.28 85.8269L984.802 84.9736ZM995.39 95.8135L994.517 96.3157L994.527 96.3266L995.39 95.8135ZM999.424 110.828H998.421V110.831L999.424 110.828ZM999.575 158.362H1000.58V158.359L999.575 158.362ZM995.601 173.377L996.474 173.882V173.879L995.601 173.377ZM977.967 166.712L978.7 167.389L978.71 167.382L977.967 166.712ZM981.349 158.362H982.353V158.359L981.349 158.362ZM981.199 110.828H980.195V110.831L981.199 110.828ZM962.087 166.858L961.347 167.535L961.354 167.542L962.087 166.858ZM970.029 187.465C964.866 187.465 960.122 186.147 955.772 183.509L954.729 185.217C959.396 188.048 964.502 189.465 970.029 189.465V187.465ZM955.776 183.512C951.456 180.862 947.967 177.341 945.305 172.934L943.586 173.966C946.411 178.642 950.126 182.395 954.725 185.215L955.776 183.512ZM945.312 172.945C942.708 168.513 941.406 163.659 941.406 158.362H939.398C939.398 164.003 940.791 169.208 943.578 173.955L945.312 172.945ZM941.406 158.365L941.553 110.831L939.546 110.825L939.398 158.359L941.406 158.365ZM941.553 110.828C941.553 105.43 942.857 100.607 945.451 96.3308L943.733 95.2962C940.936 99.9069 939.546 105.093 939.546 110.828H941.553ZM945.457 96.3197C948.018 91.9731 951.475 88.505 955.839 85.9052L954.809 84.1886C950.157 86.9599 946.459 90.6695 943.726 95.3073L945.457 96.3197ZM955.846 85.9011C960.196 83.2623 964.92 81.9453 970.029 81.9453V79.9453C964.549 79.9453 959.469 81.3627 954.802 84.1927L955.846 85.9011ZM970.029 81.9453C975.338 81.9453 980.085 83.2433 984.27 85.8243L985.324 84.123C980.797 81.3329 975.689 79.9453 970.029 79.9453V81.9453ZM984.28 85.8269C988.545 88.424 991.958 91.9155 994.517 96.3157L996.253 95.3113C993.523 90.6295 989.88 86.8943 985.324 84.1204L984.28 85.8269ZM994.527 96.3266C997.116 100.655 998.421 105.481 998.421 110.828H1000.43C1000.43 105.14 999.043 99.9562 996.243 95.3004L994.527 96.3266ZM998.421 110.831L998.571 158.365L1000.58 158.359L1000.43 110.825L998.421 110.831ZM998.571 158.362C998.571 163.662 997.287 168.493 994.738 172.875L996.474 173.879C999.214 169.179 1000.58 164 1000.58 158.362H998.571ZM994.738 172.872C992.128 177.323 988.666 180.865 984.35 183.512L985.404 185.215C990 182.393 993.694 178.611 996.474 173.882L994.738 172.872ZM984.35 183.512C980.055 186.145 975.288 187.465 970.029 187.465V189.465C975.639 189.465 980.777 188.05 985.404 185.215L984.35 183.512ZM970.029 171.374C973.371 171.374 976.281 170.014 978.7 167.389L977.224 166.035C975.137 168.292 972.758 169.374 970.029 169.374V171.374ZM978.71 167.382C981.119 164.726 982.353 161.709 982.353 158.362H980.346C980.346 161.168 979.322 163.718 977.214 166.042L978.71 167.382ZM982.353 158.359L982.202 110.825L980.195 110.831L980.346 158.365L982.353 158.359ZM982.202 110.828C982.202 107.276 981.068 104.223 978.78 101.73L977.295 103.08C979.222 105.178 980.195 107.739 980.195 110.828H982.202ZM978.78 101.73C976.472 99.22 973.531 97.9629 970.029 97.9629V99.9629C972.989 99.9629 975.388 101.001 977.295 103.08L978.78 101.73ZM970.029 97.9629C966.667 97.9629 963.759 99.199 961.37 101.633L962.804 103.031C964.825 100.973 967.219 99.9629 970.029 99.9629V97.9629ZM961.37 101.633C958.964 104.083 957.776 107.174 957.776 110.828H959.783C959.783 107.646 960.799 105.073 962.804 103.031L961.37 101.633ZM957.776 110.828V158.362H959.783V110.828H957.776ZM957.776 158.362C957.776 161.882 958.971 164.956 961.347 167.535L962.826 166.182C960.792 163.975 959.783 161.385 959.783 158.362H957.776ZM961.354 167.542C963.74 170.078 966.646 171.374 970.029 171.374V169.374C967.229 169.374 964.844 168.327 962.819 166.174L961.354 167.542Z" fill="#1D212A"/>
</g>
</g>
<path d="M0 0.5H1080V80H0V0.5Z" fill="#1D212A"/>
<path d="M0 189H1080V268.5H0V189Z" fill="#1D212A"/>
<path d="M1000 79H1080V190H1000V79Z" fill="#1D212A"/>
<path d="M0 79H446V190H0V79Z" fill="#1D212A"/>
<path d="M809.875 231V209.76H810.955V231H809.875ZM812.035 231V209.76H814.195V231H812.035ZM817.435 231V209.76H818.515V231H817.435ZM813.187 234.132H815.131C815.827 234.132 816.367 234.228 816.751 234.42C817.159 234.612 817.507 234.9 817.795 235.284C818.347 236.004 818.623 237.024 818.623 238.344C818.575 239.712 818.263 240.744 817.687 241.44C817.111 242.16 816.211 242.508 814.987 242.484H813.187V234.132ZM814.915 241.764C816.763 241.764 817.687 240.648 817.687 238.416C817.687 237.288 817.483 236.424 817.075 235.824C816.643 235.224 815.971 234.924 815.059 234.924H814.087V241.764H814.915ZM821.758 231V209.76H822.838V231H821.758ZM826.078 231V209.76H828.238V231H826.078ZM829.318 231V209.76H830.398V231H829.318ZM825.142 234.132H830.254V234.96H826.006V237.696H829.534V238.56H826.006V241.656H830.218V242.484H825.142V234.132ZM833.641 231V209.76H836.881V231H833.641ZM837.961 231V209.76H839.041V231H837.961ZM840.121 231V209.76H842.281V231H840.121ZM836.557 234.132H837.529L839.689 240.54L841.705 234.132H842.641L839.833 242.52H839.401L836.557 234.132ZM845.523 231V209.76H846.603V231H845.523ZM849.843 231V209.76H852.003V231H849.843ZM853.083 231V209.76H854.163V231H853.083ZM848.907 234.132H854.019V234.96H849.771V237.696H853.299V238.56H849.771V241.656H853.983V242.484H848.907V234.132ZM857.406 231V209.76H858.486V231H857.406ZM861.726 231V209.76H863.886V231H861.726ZM864.966 231V209.76H868.206V231H864.966ZM860.898 234.132H861.978V234.24C861.93 234.288 861.894 234.348 861.87 234.42C861.87 234.468 861.87 234.576 861.87 234.744V241.692H865.866V242.484H860.898V234.132ZM869.289 231V209.76H870.369V231H869.289ZM873.609 231V209.76H876.849V231H873.609ZM877.929 231V209.76H880.089V231H877.929ZM875.229 242.628C874.269 242.628 873.537 242.256 873.033 241.512C872.505 240.768 872.241 239.712 872.241 238.344C872.241 237.024 872.505 235.98 873.033 235.212C873.561 234.468 874.293 234.096 875.229 234.096C876.165 234.096 876.897 234.468 877.425 235.212C877.953 235.98 878.217 237.024 878.217 238.344C878.217 239.712 877.953 240.768 877.425 241.512C876.921 242.256 876.189 242.628 875.229 242.628ZM875.229 241.8C875.877 241.8 876.369 241.512 876.705 240.936C877.065 240.336 877.245 239.472 877.245 238.344C877.245 237.288 877.065 236.448 876.705 235.824C876.345 235.224 875.853 234.924 875.229 234.924C874.605 234.924 874.113 235.224 873.753 235.824C873.393 236.448 873.213 237.288 873.213 238.344C873.213 239.472 873.381 240.336 873.717 240.936C874.077 241.512 874.581 241.8 875.229 241.8ZM881.172 231V209.76H884.412V231H881.172ZM885.492 231V209.76H888.732V231H885.492ZM889.812 231V209.76H891.972V231H889.812ZM884.556 234.132H887.22C888.108 234.132 888.768 234.36 889.2 234.816C889.656 235.248 889.884 235.812 889.884 236.508C889.884 237.18 889.668 237.732 889.236 238.164C888.804 238.596 888.156 238.812 887.292 238.812H885.528V242.484H884.556V234.132ZM887.184 237.984C887.784 237.984 888.216 237.852 888.48 237.588C888.768 237.348 888.912 237 888.912 236.544C888.912 236.088 888.768 235.728 888.48 235.464C888.192 235.176 887.772 235.032 887.22 235.032H885.528V237.984H887.184ZM893.055 231V209.76H895.215V231H893.055ZM896.295 231V209.76H898.455V231H896.295ZM900.615 231V209.76H902.775V231H900.615ZM904.938 231V209.76H906.018V231H904.938ZM908.178 231V209.76H910.338V231H908.178ZM912.498 231V209.76H913.578V231H912.498ZM912.354 241.476C912.09 241.836 911.754 242.112 911.346 242.304C910.938 242.52 910.518 242.628 910.086 242.628C909.702 242.628 909.354 242.532 909.042 242.34C908.706 242.148 908.454 241.908 908.286 241.62C908.094 241.308 907.998 240.972 907.998 240.612C907.998 240.06 908.154 239.544 908.466 239.064C908.778 238.584 909.186 238.188 909.689 237.876C909.066 237.132 908.754 236.448 908.754 235.824C908.754 235.488 908.838 235.188 909.006 234.924C909.174 234.66 909.39 234.444 909.654 234.276C909.942 234.132 910.254 234.06 910.59 234.06C910.926 234.06 911.238 234.144 911.526 234.312C911.79 234.48 912.006 234.696 912.174 234.96C912.318 235.224 912.39 235.512 912.39 235.824C912.39 236.256 912.258 236.688 911.994 237.12C911.706 237.576 911.358 237.888 910.95 238.056L912.426 240.18C912.642 239.916 912.798 239.688 912.894 239.496C912.966 239.304 913.014 239.076 913.038 238.812C913.038 238.764 913.062 238.716 913.11 238.668L913.974 239.28C913.638 239.856 913.302 240.372 912.966 240.828L913.902 242.052L913.11 242.628L912.354 241.476ZM910.482 237.48C910.794 237.336 911.046 237.108 911.238 236.796C911.406 236.508 911.49 236.208 911.49 235.896C911.49 235.608 911.406 235.356 911.238 235.14C911.046 234.948 910.83 234.852 910.59 234.852C910.326 234.852 910.11 234.948 909.942 235.14C909.75 235.308 909.654 235.536 909.654 235.824C909.654 236.256 909.93 236.808 910.482 237.48ZM910.194 241.764C910.77 241.764 911.322 241.452 911.85 240.828L910.158 238.524C909.822 238.74 909.546 239.028 909.33 239.388C909.138 239.748 909.042 240.096 909.042 240.432C909.042 240.816 909.15 241.128 909.366 241.368C909.606 241.632 909.882 241.764 910.194 241.764ZM916.82 231V209.76H918.98V231H916.82ZM920.06 231V209.76H922.22V231H920.06ZM924.38 231V209.76H926.54V231H924.38ZM928.703 231V209.76H929.783V231H928.703ZM930.863 231V209.76H933.023V231H930.863ZM936.263 231V209.76H937.343V231H936.263ZM932.015 234.132H933.959C934.655 234.132 935.195 234.228 935.579 234.42C935.987 234.612 936.335 234.9 936.623 235.284C937.175 236.004 937.451 237.024 937.451 238.344C937.403 239.712 937.091 240.744 936.515 241.44C935.939 242.16 935.039 242.508 933.815 242.484H932.015V234.132ZM933.743 241.764C935.591 241.764 936.515 240.648 936.515 238.416C936.515 237.288 936.311 236.424 935.903 235.824C935.471 235.224 934.799 234.924 933.887 234.924H932.915V241.764H933.743ZM940.586 231V209.76H941.666V231H940.586ZM944.906 231V209.76H947.066V231H944.906ZM948.146 231V209.76H949.226V231H948.146ZM943.97 234.132H949.082V234.96H944.834V237.696H948.362V238.56H944.834V241.656H949.046V242.484H943.97V234.132ZM952.469 231V209.76H954.629V231H952.469ZM955.709 231V209.76H958.949V231H955.709ZM960.029 231V209.76H961.109V231H960.029ZM958.373 242.628C957.293 242.628 956.417 242.268 955.745 241.548L956.249 240.72L956.285 240.612L956.393 240.648C956.393 240.672 956.405 240.72 956.429 240.792C956.429 240.84 956.453 240.9 956.501 240.972C956.525 241.02 956.573 241.068 956.645 241.116C957.149 241.548 957.773 241.764 958.517 241.764C958.997 241.764 959.405 241.632 959.741 241.368C960.077 241.08 960.245 240.744 960.245 240.36C960.245 240.096 960.185 239.868 960.065 239.676C959.969 239.508 959.789 239.34 959.525 239.172C959.261 239.004 958.853 238.8 958.301 238.56C957.485 238.248 956.897 237.888 956.537 237.48C956.201 237.072 956.033 236.616 956.033 236.112C956.033 235.488 956.261 234.984 956.717 234.6C957.173 234.216 957.785 234.024 958.553 234.024C959.009 234.024 959.441 234.12 959.849 234.312C960.233 234.504 960.581 234.756 960.893 235.068L960.281 235.896L960.209 235.824C960.209 235.8 960.197 235.764 960.173 235.716C960.173 235.644 960.149 235.584 960.101 235.536C960.077 235.464 960.029 235.404 959.957 235.356C959.765 235.164 959.537 235.02 959.273 234.924C959.033 234.852 958.745 234.816 958.409 234.816C957.977 234.816 957.641 234.936 957.401 235.176C957.137 235.416 957.005 235.704 957.005 236.04C957.005 236.304 957.053 236.532 957.149 236.724C957.269 236.916 957.473 237.096 957.761 237.264C958.049 237.456 958.481 237.66 959.057 237.876C959.849 238.212 960.401 238.548 960.713 238.884C961.001 239.244 961.145 239.688 961.145 240.216C961.145 240.624 961.049 241.008 960.857 241.368C960.641 241.728 960.329 242.028 959.921 242.268C959.489 242.508 958.973 242.628 958.373 242.628ZM964.352 231V209.76H966.512V231H964.352ZM969.752 231V209.76H970.832V231H969.752ZM974.072 231V209.76H975.152V231H974.072ZM968.024 241.692H969.68V234.924H968.132V234.132H972.272V234.924H970.616V241.692H972.344V242.484H968.024V241.692ZM976.234 231V209.76H978.394V231H976.234ZM979.474 231V209.76H980.554V231H979.474ZM983.794 231V209.76H984.874V231H983.794ZM982.534 242.628C981.862 242.628 981.286 242.448 980.806 242.088C980.326 241.752 979.954 241.26 979.69 240.612C979.426 239.988 979.294 239.256 979.294 238.416C979.294 237.312 979.462 236.436 979.798 235.788C980.134 235.14 980.542 234.684 981.022 234.42C981.502 234.18 981.982 234.06 982.462 234.06C982.966 234.06 983.446 234.192 983.902 234.456C984.382 234.696 984.73 235.032 984.946 235.464L984.298 235.968L984.19 236.076L984.154 236.004C984.154 235.932 984.142 235.86 984.118 235.788C984.07 235.74 983.998 235.656 983.902 235.536C983.686 235.296 983.47 235.128 983.254 235.032C983.038 234.936 982.774 234.888 982.462 234.888C981.814 234.888 981.274 235.14 980.842 235.644C980.434 236.172 980.23 237.024 980.23 238.2C980.23 239.352 980.434 240.24 980.842 240.864C981.25 241.488 981.814 241.8 982.534 241.8C982.798 241.8 983.074 241.752 983.362 241.656C983.674 241.584 983.926 241.464 984.118 241.296V239.316H982.606V238.488H984.982V241.764C984.19 242.34 983.374 242.628 982.534 242.628ZM988.117 231V209.76H989.197V231H988.117ZM990.277 231V209.76H993.517V231H990.277ZM996.757 231V209.76H998.917V231H996.757ZM991.393 234.132H992.293L995.785 240.324V234.132H996.829V234.24C996.757 234.288 996.721 234.348 996.721 234.42C996.697 234.468 996.685 234.576 996.685 234.744V242.484H995.965L992.257 235.932V242.484H991.393V234.132Z" fill="#F2F2F2"/>
<defs>
<clipPath id="clip0_17_8">
<rect width="556" height="111" fill="white" transform="translate(445 79)"/>
</clipPath>
</defs>
</svg>
