<svg width="280" height="35" viewBox="0 0 280 35" fill="none" xmlns="http://www.w3.org/2000/svg">
<rect width="280" height="35" fill="#0F0F0F"/>
<path d="M67.5938 20.1375C67.7512 20.1375 67.9022 20.1968 68.0136 20.3023C68.1249 20.4078 68.1875 20.5508 68.1875 20.7V23.5125C68.1875 23.8109 68.3126 24.097 68.5353 24.308C68.758 24.519 69.0601 24.6375 69.375 24.6375H83.625C83.9399 24.6375 84.242 24.519 84.4647 24.308C84.6874 24.097 84.8125 23.8109 84.8125 23.5125V20.7C84.8125 20.5508 84.8751 20.4078 84.9864 20.3023C85.0978 20.1968 85.2488 20.1375 85.4062 20.1375C85.5637 20.1375 85.7147 20.1968 85.8261 20.3023C85.9374 20.4078 86 20.5508 86 20.7V23.5125C86 24.1092 85.7498 24.6815 85.3044 25.1035C84.859 25.5255 84.2549 25.7625 83.625 25.7625H69.375C68.7451 25.7625 68.141 25.5255 67.6956 25.1035C67.2502 24.6815 67 24.1092 67 23.5125V20.7C67 20.5508 67.0626 20.4078 67.1739 20.3023C67.2853 20.1968 67.4363 20.1375 67.5938 20.1375Z" fill="white"/>
<path d="M76.0796 22.3358C76.1348 22.3881 76.2003 22.4297 76.2724 22.4581C76.3446 22.4864 76.4219 22.501 76.5 22.501C76.5781 22.501 76.6554 22.4864 76.7276 22.4581C76.7997 22.4297 76.8652 22.3881 76.9204 22.3358L80.4829 18.9608C80.5944 18.8551 80.657 18.7119 80.657 18.5625C80.657 18.4131 80.5944 18.2699 80.4829 18.1642C80.3714 18.0586 80.2202 17.9993 80.0625 17.9993C79.9048 17.9993 79.7536 18.0586 79.6421 18.1642L77.0938 20.5796V10.6875C77.0938 10.5383 77.0312 10.3952 76.9198 10.2898C76.8085 10.1843 76.6575 10.125 76.5 10.125C76.3425 10.125 76.1915 10.1843 76.0802 10.2898C75.9688 10.3952 75.9063 10.5383 75.9063 10.6875V20.5796L73.3579 18.1642C73.2464 18.0586 73.0952 17.9993 72.9375 17.9993C72.7798 17.9993 72.6286 18.0586 72.5171 18.1642C72.4056 18.2699 72.343 18.4131 72.343 18.5625C72.343 18.7119 72.4056 18.8551 72.5171 18.9608L76.0796 22.3358Z" fill="white"/>
<g clip-path="url(#clip0_1204_2)">
<path d="M227.062 11.8123C227.062 11.1524 227.307 10.5135 227.754 10.0074C228.201 9.50122 228.822 9.16008 229.507 9.04361C230.193 8.92714 230.9 9.04277 231.504 9.37027C232.109 9.69777 232.573 10.2163 232.815 10.8351C233.057 11.4539 233.062 12.1336 232.828 12.7552C232.594 13.3769 232.137 13.901 231.537 14.2357C230.937 14.5705 230.231 14.6946 229.544 14.5864C228.857 14.4782 228.232 14.1445 227.778 13.6438L219.801 17.1538C219.984 17.7044 219.984 18.2952 219.801 18.8458L227.778 22.3558C228.258 21.8274 228.928 21.4865 229.657 21.3992C230.387 21.3118 231.125 21.4842 231.728 21.883C232.331 22.2817 232.757 22.8784 232.922 23.5574C233.088 24.2365 232.981 24.9494 232.623 25.5582C232.265 26.167 231.681 26.6281 230.985 26.8524C230.288 27.0766 229.529 27.0479 228.853 26.7719C228.178 26.4958 227.635 25.9921 227.329 25.3583C227.024 24.7245 226.977 24.0057 227.199 23.3413L219.221 19.8313C218.826 20.2673 218.3 20.5783 217.713 20.7224C217.126 20.8665 216.506 20.8368 215.938 20.6373C215.369 20.4379 214.878 20.0782 214.532 19.6066C214.185 19.1351 214 18.5743 214 17.9998C214 17.4253 214.185 16.8645 214.532 16.393C214.878 15.9214 215.369 15.5617 215.938 15.3623C216.506 15.1628 217.126 15.1331 217.713 15.2772C218.3 15.4213 218.826 15.7323 219.221 16.1683L227.199 12.6583C227.108 12.3846 227.062 12.0993 227.062 11.8123Z" fill="white"/>
</g>
<path d="M150.795 10.6875C150.584 10.4766 150.298 10.3581 150 10.3581C149.702 10.3581 149.416 10.4766 149.205 10.6875L141.727 18.1642C141.674 18.2165 141.633 18.2786 141.605 18.3469C141.576 18.4153 141.562 18.4885 141.562 18.5625C141.562 18.6364 141.576 18.7097 141.605 18.778C141.633 18.8463 141.674 18.9084 141.727 18.9607C141.832 19.0664 141.976 19.1257 142.125 19.1257C142.199 19.1257 142.272 19.1111 142.341 19.0828C142.409 19.0545 142.471 19.013 142.523 18.9607L143.25 18.2329V24.1875C143.25 24.635 143.428 25.0643 143.744 25.3807C144.061 25.6972 144.49 25.875 144.938 25.875H155.063C155.51 25.875 155.939 25.6972 156.256 25.3807C156.572 25.0643 156.75 24.635 156.75 24.1875V18.2329L157.477 18.9607C157.582 19.0664 157.726 19.1257 157.875 19.1257C158.024 19.1257 158.168 19.0664 158.273 18.9607C158.379 18.8551 158.438 18.7119 158.438 18.5625C158.438 18.4131 158.379 18.2699 158.273 18.1642L155.625 15.5171V11.8125C155.625 11.6633 155.566 11.5202 155.46 11.4147C155.355 11.3092 155.212 11.25 155.063 11.25H153.938C153.788 11.25 153.645 11.3092 153.54 11.4147C153.434 11.5202 153.375 11.6633 153.375 11.8125V13.2671L150.795 10.6875ZM155.625 17.1079V24.1875C155.625 24.3367 155.566 24.4797 155.46 24.5852C155.355 24.6907 155.212 24.75 155.063 24.75H144.938C144.788 24.75 144.645 24.6907 144.54 24.5852C144.434 24.4797 144.375 24.3367 144.375 24.1875V17.1079L150 11.4829L155.625 17.1079Z" fill="white"/>
<defs>
<clipPath id="clip0_1204_2">
<rect width="19" height="18" fill="white" transform="translate(214 9)"/>
</clipPath>
</defs>
</svg>
