<svg width="1080" height="270" viewBox="0 0 1080 270" fill="none" xmlns="http://www.w3.org/2000/svg">
<g clip-path="url(#clip0_14_32)">
<mask id="mask0_14_32" style="mask-type:luminance" maskUnits="userSpaceOnUse" x="445" y="79" width="556" height="111">
<path d="M1001 79H445V190H1001V79Z" fill="white"/>
<path d="M464.52 187H447.613C447.124 187 446.879 186.756 446.879 186.268L447.173 83.2158C447.173 82.8252 447.369 82.6299 447.761 82.6299H476.722C485.935 82.6299 493.213 85.4375 498.554 91.0527C503.944 96.6191 506.64 104.212 506.64 113.831C506.64 120.862 505.243 126.99 502.45 132.215C499.607 137.391 495.932 141.395 491.424 144.227C486.916 147.059 482.015 148.475 476.722 148.475H465.256V186.268C465.256 186.756 465.01 187 464.52 187ZM476.722 100.428L465.256 100.574V130.311H476.722C479.908 130.311 482.677 128.797 485.029 125.77C487.382 122.693 488.557 118.714 488.557 113.831C488.557 109.925 487.504 106.727 485.396 104.236C483.289 101.697 480.398 100.428 476.722 100.428ZM544.716 188.465C539.375 188.465 534.45 187.098 529.942 184.363C525.482 181.629 521.881 177.991 519.136 173.45C516.441 168.86 515.093 163.831 515.093 158.362L515.24 110.828C515.24 105.262 516.588 100.257 519.283 95.8135C521.929 91.3213 525.507 87.7324 530.015 85.0469C534.523 82.3125 539.424 80.9453 544.716 80.9453C550.204 80.9453 555.129 82.2881 559.491 84.9736C563.902 87.6592 567.429 91.2725 570.076 95.8135C572.772 100.306 574.118 105.311 574.118 110.828L574.266 158.362C574.266 163.831 572.942 168.836 570.297 173.377C567.601 177.967 564.024 181.629 559.564 184.363C555.105 187.098 550.155 188.465 544.716 188.465ZM544.716 170.374C547.755 170.374 550.4 169.153 552.655 166.712C554.909 164.222 556.036 161.438 556.036 158.362L555.889 110.828C555.889 107.508 554.835 104.7 552.729 102.405C550.621 100.11 547.95 98.9629 544.716 98.9629C541.629 98.9629 538.983 100.086 536.777 102.332C534.572 104.578 533.469 107.41 533.469 110.828V158.362C533.469 161.634 534.572 164.466 536.777 166.858C538.983 169.202 541.629 170.374 544.716 170.374ZM603.3 187H586.247C585.856 187 585.659 186.756 585.659 186.268L585.953 83.2158C585.953 82.8252 586.15 82.6299 586.541 82.6299H616.973C622.412 82.6299 627.411 83.9482 631.969 86.585C636.526 89.2217 640.152 92.7617 642.848 97.2051C645.592 101.648 646.964 106.678 646.964 112.293C646.964 115.955 646.4 119.275 645.273 122.254C644.146 125.232 642.823 127.747 641.304 129.798C639.834 131.849 638.486 133.362 637.261 134.339C642.7 140.345 645.42 147.4 645.42 155.506L645.567 186.268C645.567 186.756 645.323 187 644.832 187H627.778C627.386 187 627.19 186.854 627.19 186.561V155.506C627.19 151.893 625.917 148.768 623.369 146.131C620.82 143.494 617.683 142.176 613.96 142.176H604.036L603.889 186.268C603.889 186.756 603.693 187 603.3 187ZM616.973 100.574H604.036V124.158H616.973C620.061 124.158 622.805 123.011 625.206 120.716C627.656 118.421 628.881 115.613 628.881 112.293C628.881 109.119 627.705 106.385 625.353 104.09C623 101.746 620.207 100.574 616.973 100.574ZM690.406 187H673.426C672.985 187 672.764 186.756 672.764 186.268V100.721H653.212C652.722 100.721 652.476 100.477 652.476 99.9883L652.624 83.2158C652.624 82.8252 652.82 82.6299 653.212 82.6299H710.4C710.939 82.6299 711.209 82.8252 711.209 83.2158V99.9883C711.209 100.477 711.013 100.721 710.621 100.721H690.847L690.994 186.268C690.994 186.756 690.798 187 690.406 187ZM736.201 187H719.295C718.804 187 718.559 186.756 718.559 186.268L718.853 83.2158C718.853 82.8252 719.049 82.6299 719.441 82.6299H767.662C768.151 82.6299 768.396 82.8252 768.396 83.2158V100.135C768.396 100.525 768.201 100.721 767.808 100.721H736.936V124.012H767.808C768.201 124.012 768.396 124.256 768.396 124.744L768.544 141.736C768.544 142.127 768.299 142.322 767.808 142.322H736.936V186.268C736.936 186.756 736.691 187 736.201 187ZM809.781 188.465C804.439 188.465 799.514 187.098 795.006 184.363C790.547 181.629 786.945 177.991 784.2 173.45C781.505 168.86 780.158 163.831 780.158 158.362L780.305 110.828C780.305 105.262 781.652 100.257 784.348 95.8135C786.994 91.3213 790.571 87.7324 795.079 85.0469C799.588 82.3125 804.488 80.9453 809.781 80.9453C815.27 80.9453 820.195 82.2881 824.555 84.9736C828.966 87.6592 832.495 91.2725 835.14 95.8135C837.836 100.306 839.184 105.311 839.184 110.828L839.33 158.362C839.33 163.831 838.008 168.836 835.361 173.377C832.666 177.967 829.089 181.629 824.63 184.363C820.17 187.098 815.221 188.465 809.781 188.465ZM809.781 170.374C812.819 170.374 815.466 169.153 817.72 166.712C819.974 164.222 821.101 161.438 821.101 158.362L820.954 110.828C820.954 107.508 819.901 104.7 817.793 102.405C815.686 100.11 813.015 98.9629 809.781 98.9629C806.694 98.9629 804.048 100.086 801.843 102.332C799.637 104.578 798.535 107.41 798.535 110.828V158.362C798.535 161.634 799.637 164.466 801.843 166.858C804.048 169.202 806.694 170.374 809.781 170.374ZM899.974 187H851.313C850.92 187 850.724 186.756 850.724 186.268L850.871 83.3623C850.871 82.874 851.116 82.6299 851.607 82.6299H868.366C868.856 82.6299 869.101 82.874 869.101 83.3623L868.954 168.543H899.974C900.463 168.543 900.708 168.787 900.708 169.275V186.268C900.708 186.756 900.463 187 899.974 187ZM928.347 187H911.293C910.804 187 910.559 186.756 910.559 186.268L910.705 83.2158C910.705 82.8252 910.902 82.6299 911.293 82.6299H928.2C928.593 82.6299 928.788 82.8252 928.788 83.2158L928.935 186.268C928.935 186.756 928.739 187 928.347 187ZM970.029 188.465C964.683 188.465 959.759 187.098 955.25 184.363C950.791 181.629 947.189 177.991 944.445 173.45C941.75 168.86 940.402 163.831 940.402 158.362L940.55 110.828C940.55 105.262 941.896 100.257 944.592 95.8135C947.239 91.3213 950.816 87.7324 955.324 85.0469C959.832 82.3125 964.733 80.9453 970.029 80.9453C975.518 80.9453 980.436 82.2881 984.802 84.9736C989.208 87.6592 992.74 91.2725 995.39 95.8135C998.079 100.306 999.424 105.311 999.424 110.828L999.575 158.362C999.575 163.831 998.25 168.836 995.601 173.377C992.911 177.967 989.338 181.629 984.872 184.363C980.416 187.098 975.468 188.465 970.029 188.465ZM970.029 170.374C973.06 170.374 975.709 169.153 977.967 166.712C980.215 164.222 981.349 161.438 981.349 158.362L981.199 110.828C981.199 107.508 980.145 104.7 978.037 102.405C975.93 100.11 973.26 98.9629 970.029 98.9629C966.938 98.9629 964.292 100.086 962.087 102.332C959.881 104.578 958.779 107.41 958.779 110.828V158.362C958.779 161.634 959.881 164.466 962.087 166.858C964.292 169.202 966.938 170.374 970.029 170.374Z" fill="black"/>
</mask>
<g mask="url(#mask0_14_32)">
<path d="M1045.16 4H-38.7401V304H1045.16V4Z" fill="#F2F2F2"/>
<path d="M446.879 186.268L445.875 186.265V186.268H446.879ZM447.173 83.2158L448.176 83.2187V83.2158H447.173ZM498.554 91.0527L497.825 91.7407L497.832 91.7471L498.554 91.0527ZM502.45 132.215L503.33 132.695L503.336 132.685L502.45 132.215ZM465.256 148.475V147.475H464.252V148.475H465.256ZM476.722 100.428V99.4277L476.71 99.4278L476.722 100.428ZM465.256 100.574L465.243 99.5743L464.252 99.587V100.574H465.256ZM465.256 130.311H464.252V131.311H465.256V130.311ZM485.029 125.77L485.823 126.382L485.827 126.376L485.029 125.77ZM485.396 104.236L484.622 104.874L484.629 104.881L485.396 104.236ZM464.52 186H447.613V188H464.52V186ZM447.613 186C447.523 186 447.641 185.978 447.772 186.11C447.904 186.241 447.882 186.358 447.882 186.268H445.875C445.875 186.666 445.976 187.148 446.353 187.524C446.73 187.9 447.214 188 447.613 188V186ZM447.882 186.27L448.176 83.2187L446.169 83.213L445.875 186.265L447.882 186.27ZM448.176 83.2158C448.176 83.1747 448.186 83.3275 448.03 83.4835C447.873 83.6395 447.72 83.6299 447.761 83.6299V81.6299C447.411 81.6299 446.963 81.7179 446.61 82.0693C446.258 82.4206 446.169 82.8664 446.169 83.2158H448.176ZM447.761 83.6299H476.722V81.6299H447.761V83.6299ZM476.722 83.6299C485.715 83.6299 492.708 86.3616 497.825 91.7407L499.282 90.3648C493.716 84.5134 486.155 81.6299 476.722 81.6299V83.6299ZM497.832 91.7471C503.001 97.0842 505.636 104.405 505.636 113.831H507.643C507.643 104.019 504.888 96.154 499.276 90.3584L497.832 91.7471ZM505.636 113.831C505.636 120.729 504.266 126.69 501.565 131.745L503.336 132.685C506.219 127.291 507.643 120.996 507.643 113.831H505.636ZM501.57 131.735C498.8 136.778 495.237 140.649 490.889 143.381L491.959 145.072C496.628 142.14 500.415 138.003 503.33 132.695L501.57 131.735ZM490.889 143.381C486.539 146.113 481.824 147.475 476.722 147.475V149.475C482.206 149.475 487.291 148.004 491.959 145.072L490.889 143.381ZM476.722 147.475H465.256V149.475H476.722V147.475ZM464.252 148.475V186.268H466.26V148.475H464.252ZM464.252 186.268C464.252 186.358 464.23 186.241 464.362 186.11C464.494 185.978 464.611 186 464.52 186V188C464.92 188 465.404 187.9 465.782 187.524C466.158 187.148 466.26 186.666 466.26 186.268H464.252ZM476.71 99.4278L465.243 99.5743L465.268 101.574L476.735 101.428L476.71 99.4278ZM464.252 100.574V130.311H466.26V100.574H464.252ZM465.256 131.311H476.722V129.311H465.256V131.311ZM476.722 131.311C480.283 131.311 483.324 129.597 485.822 126.382L484.235 125.157C482.029 127.996 479.532 129.311 476.722 129.311V131.311ZM485.827 126.376C488.344 123.084 489.56 118.875 489.56 113.831H487.553C487.553 118.553 486.418 122.303 484.23 125.163L485.827 126.376ZM489.56 113.831C489.56 109.738 488.452 106.297 486.164 103.592L484.629 104.881C486.555 107.157 487.553 110.112 487.553 113.831H489.56ZM486.17 103.599C483.849 100.803 480.659 99.4277 476.722 99.4277V101.428C480.136 101.428 482.729 102.592 484.622 104.874L486.17 103.599ZM529.942 184.363L529.416 185.215L529.42 185.217L529.942 184.363ZM519.136 173.45L518.27 173.955L518.276 173.966L519.136 173.45ZM515.093 158.362L514.09 158.359V158.362H515.093ZM515.24 110.828L516.243 110.831V110.828H515.24ZM519.283 95.8135L520.142 96.3308L520.148 96.3197L519.283 95.8135ZM530.015 85.0469L530.53 85.9052L530.537 85.9011L530.015 85.0469ZM559.491 84.9736L558.963 85.8243L558.968 85.8269L559.491 84.9736ZM570.076 95.8135L569.208 96.3157L569.215 96.3266L570.076 95.8135ZM574.118 110.828H573.115V110.831L574.118 110.828ZM574.266 158.362H575.27V158.359L574.266 158.362ZM570.297 173.377L571.163 173.882L571.165 173.879L570.297 173.377ZM552.655 166.712L553.394 167.389L553.4 167.382L552.655 166.712ZM556.036 158.362H557.04V158.359L556.036 158.362ZM555.889 110.828H554.885V110.831L555.889 110.828ZM536.777 166.858L536.039 167.535L536.046 167.542L536.777 166.858ZM544.716 187.465C539.556 187.465 534.812 186.147 530.463 183.509L529.42 185.217C534.088 188.048 539.193 189.465 544.716 189.465V187.465ZM530.467 183.512C526.147 180.862 522.658 177.341 519.996 172.934L518.276 173.966C521.102 178.642 524.817 182.395 529.416 185.215L530.467 183.512ZM520.002 172.945C517.399 168.513 516.097 163.659 516.097 158.362H514.09C514.09 164.003 515.481 169.208 518.27 173.955L520.002 172.945ZM516.097 158.365L516.243 110.831L514.236 110.825L514.09 158.359L516.097 158.365ZM516.243 110.828C516.243 105.43 517.548 100.607 520.141 96.3307L518.424 95.2962C515.627 99.9069 514.236 105.093 514.236 110.828H516.243ZM520.148 96.3197C522.709 91.9731 526.165 88.505 530.53 85.9052L529.5 84.1886C524.847 86.9599 521.149 90.6695 518.417 95.3073L520.148 96.3197ZM530.537 85.9011C534.887 83.2623 539.607 81.9453 544.716 81.9453V79.9453C539.24 79.9453 534.159 81.3627 529.493 84.1927L530.537 85.9011ZM544.716 81.9453C550.032 81.9453 554.772 83.2433 558.963 85.8243L560.019 84.123C555.487 81.3329 550.377 79.9453 544.716 79.9453V81.9453ZM558.968 85.8269C563.232 88.424 566.644 91.9155 569.208 96.3157L570.944 95.3113C568.215 90.6295 564.57 86.8943 560.015 84.1204L558.968 85.8269ZM569.215 96.3266C571.811 100.655 573.115 105.481 573.115 110.828H575.122C575.122 105.14 573.731 99.9562 570.937 95.3004L569.215 96.3266ZM573.115 110.831L573.262 158.365L575.27 158.359L575.122 110.825L573.115 110.831ZM573.262 158.362C573.262 163.662 571.982 168.493 569.429 172.875L571.165 173.879C573.904 169.179 575.27 164 575.27 158.362H573.262ZM569.431 172.872C566.816 177.323 563.355 180.865 559.038 183.512L560.09 185.215C564.693 182.393 568.386 178.611 571.163 173.882L569.431 172.872ZM559.038 183.512C554.744 186.145 549.978 187.465 544.716 187.465V189.465C550.334 189.465 555.466 188.05 560.09 185.215L559.038 183.512ZM544.716 171.374C548.064 171.374 550.97 170.014 553.394 167.389L551.917 166.035C549.832 168.292 547.445 169.374 544.716 169.374V171.374ZM553.4 167.382C555.805 164.726 557.04 161.709 557.04 158.362H555.033C555.033 161.168 554.014 163.718 551.91 166.042L553.4 167.382ZM557.04 158.359L556.892 110.825L554.885 110.831L555.033 158.365L557.04 158.359ZM556.892 110.828C556.892 107.276 555.757 104.223 553.469 101.73L551.988 103.08C553.914 105.178 554.885 107.739 554.885 110.828H556.892ZM553.469 101.73C551.164 99.22 548.22 97.9629 544.716 97.9629V99.9629C547.68 99.9629 550.078 101.001 551.988 103.08L553.469 101.73ZM544.716 97.9629C541.353 97.9629 538.449 99.199 536.06 101.633L537.495 103.031C539.516 100.973 541.906 99.9629 544.716 99.9629V97.9629ZM536.06 101.633C533.654 104.083 532.466 107.174 532.466 110.828H534.473C534.473 107.646 535.49 105.073 537.495 103.031L536.06 101.633ZM532.466 110.828V158.362H534.473V110.828H532.466ZM532.466 158.362C532.466 161.882 533.662 164.956 536.039 167.535L537.517 166.182C535.483 163.975 534.473 161.385 534.473 158.362H532.466ZM536.046 167.542C538.431 170.078 541.338 171.374 544.716 171.374V169.374C541.92 169.374 539.534 168.327 537.51 166.174L536.046 167.542ZM585.659 186.268L584.655 186.265V186.268H585.659ZM585.953 83.2158L586.957 83.2187V83.2158H585.953ZM642.848 97.2051L641.989 97.7224L641.993 97.7292L642.848 97.2051ZM641.304 129.798L640.496 129.204L640.491 129.21L640.487 129.217L641.304 129.798ZM637.261 134.339L636.634 133.558L635.802 134.221L636.516 135.009L637.261 134.339ZM645.42 155.506H644.416V155.511L645.42 155.506ZM645.567 186.268H646.571V186.263L645.567 186.268ZM604.036 142.176V141.176H603.035L603.032 142.172L604.036 142.176ZM603.889 186.268L602.885 186.264V186.268H603.889ZM604.036 100.574V99.5742H603.032V100.574H604.036ZM604.036 124.158H603.032V125.158H604.036V124.158ZM625.206 120.716L624.519 119.987L624.511 119.994L625.206 120.716ZM625.353 104.09L624.643 104.797L624.65 104.804L625.353 104.09ZM603.3 186H586.247V188H603.3V186ZM586.247 186C586.252 186 586.302 186.001 586.377 186.031C586.456 186.064 586.532 186.12 586.59 186.192C586.695 186.323 586.663 186.405 586.663 186.268H584.655C584.655 186.619 584.722 187.067 585.023 187.442C585.358 187.859 585.83 188 586.247 188V186ZM586.663 186.27L586.957 83.2187L584.949 83.213L584.655 186.265L586.663 186.27ZM586.957 83.2158C586.957 83.1747 586.967 83.3275 586.81 83.4835C586.654 83.6395 586.5 83.6299 586.541 83.6299V81.6299C586.191 81.6299 585.743 81.7179 585.391 82.0693C585.038 82.4206 584.949 82.8664 584.949 83.2158H586.957ZM586.541 83.6299H616.973V81.6299H586.541V83.6299ZM616.973 83.6299C622.242 83.6299 627.065 84.9045 631.465 87.4498L632.472 85.7202C627.756 82.992 622.584 81.6299 616.973 81.6299V83.6299ZM631.465 87.4498C635.878 90.0032 639.381 93.4245 641.989 97.7224L643.707 96.6878C640.923 92.0991 637.174 88.4402 632.472 85.7202L631.465 87.4498ZM641.993 97.7292C644.632 102.003 645.96 106.848 645.96 112.293H647.967C647.967 106.507 646.551 101.294 643.702 96.681L641.993 97.7292ZM645.96 112.293C645.96 115.852 645.413 119.051 644.334 121.901L646.212 122.607C647.388 119.5 647.967 116.058 647.967 112.293H645.96ZM644.334 121.901C643.232 124.814 641.949 127.243 640.496 129.204L642.111 130.392C643.697 128.251 645.061 125.651 646.212 122.607L644.334 121.901ZM640.487 129.217C639.042 131.232 637.756 132.663 636.634 133.558L637.888 135.12C639.216 134.062 640.625 132.465 642.12 130.379L640.487 129.217ZM636.516 135.009C641.789 140.831 644.416 147.647 644.416 155.506H646.424C646.424 147.153 643.612 139.859 638.006 133.669L636.516 135.009ZM644.416 155.511L644.564 186.272L646.571 186.263L646.424 155.501L644.416 155.511ZM644.564 186.268C644.564 186.358 644.542 186.241 644.674 186.11C644.806 185.978 644.922 186 644.832 186V188C645.232 188 645.716 187.9 646.093 187.524C646.47 187.148 646.571 186.666 646.571 186.268H644.564ZM644.832 186H627.778V188H644.832V186ZM627.778 186C627.679 186 627.787 185.976 627.94 186.09C628.025 186.154 628.099 186.243 628.145 186.347C628.188 186.444 628.194 186.524 628.194 186.561H626.187C626.187 186.951 626.332 187.389 626.736 187.69C627.084 187.95 627.486 188 627.778 188V186ZM628.194 186.561V155.506H626.187V186.561H628.194ZM628.194 155.506C628.194 151.63 626.817 148.258 624.091 145.437L622.645 146.825C625.016 149.278 626.187 152.155 626.187 155.506H628.194ZM624.091 145.437C621.35 142.602 617.952 141.176 613.96 141.176V143.176C617.415 143.176 620.29 144.387 622.645 146.825L624.091 145.437ZM613.96 141.176H604.036V143.176H613.96V141.176ZM603.032 142.172L602.885 186.264L604.892 186.271L605.04 142.179L603.032 142.172ZM602.885 186.268C602.885 186.405 602.854 186.323 602.958 186.192C603.016 186.12 603.093 186.064 603.172 186.031C603.245 186.001 603.296 186 603.3 186V188C603.718 188 604.191 187.859 604.526 187.442C604.827 187.067 604.892 186.619 604.892 186.268H602.885ZM616.973 99.5742H604.036V101.574H616.973V99.5742ZM603.032 100.574V124.158H605.04V100.574H603.032ZM604.036 125.158H616.973V123.158H604.036V125.158ZM616.973 125.158C620.341 125.158 623.328 123.896 625.901 121.438L624.511 119.994C622.281 122.126 619.78 123.158 616.973 123.158V125.158ZM625.894 121.444C628.543 118.962 629.885 115.892 629.885 112.293H627.878C627.878 115.334 626.769 117.879 624.519 119.987L625.894 121.444ZM629.885 112.293C629.885 108.84 628.592 105.851 626.055 103.375L624.65 104.804C626.817 106.918 627.878 109.398 627.878 112.293H629.885ZM626.062 103.383C623.528 100.857 620.482 99.5742 616.973 99.5742V101.574C619.933 101.574 622.473 102.635 624.643 104.797L626.062 103.383ZM672.764 100.721H673.768V99.7207H672.764V100.721ZM652.476 99.9883L651.473 99.9795V99.9883H652.476ZM652.624 83.2158L653.627 83.2246V83.2158H652.624ZM690.847 100.721V99.7207H689.842L689.844 100.722L690.847 100.721ZM690.994 186.268H691.997V186.266L690.994 186.268ZM690.406 186H673.426V188H690.406V186ZM673.426 186C673.407 186 673.433 185.997 673.485 186.016C673.544 186.038 673.614 186.08 673.676 186.148C673.796 186.281 673.768 186.382 673.768 186.268H671.761C671.761 186.641 671.843 187.108 672.184 187.486C672.542 187.883 673.022 188 673.426 188V186ZM673.768 186.268V100.721H671.761V186.268H673.768ZM672.764 99.7207H653.212V101.721H672.764V99.7207ZM653.212 99.7207C653.122 99.7207 653.238 99.6989 653.371 99.8305C653.502 99.9621 653.48 100.078 653.48 99.9883H651.473C651.473 100.387 651.574 100.869 651.95 101.245C652.328 101.62 652.812 101.721 653.212 101.721V99.7207ZM653.48 99.997L653.627 83.2246L651.62 83.2071L651.474 99.9795L653.48 99.997ZM653.627 83.2158C653.627 83.1747 653.637 83.3275 653.481 83.4835C653.324 83.6395 653.171 83.6299 653.212 83.6299V81.6299C652.861 81.6299 652.414 81.7179 652.061 82.0693C651.709 82.4206 651.62 82.8664 651.62 83.2158H653.627ZM653.212 83.6299H710.4V81.6299H653.212V83.6299ZM710.4 83.6299C710.477 83.6299 710.512 83.6372 710.517 83.6384C710.521 83.6394 710.478 83.6297 710.416 83.5851C710.348 83.5361 710.286 83.4638 710.246 83.3761C710.208 83.2939 710.205 83.2321 710.205 83.2158H712.212C712.212 82.7648 712.04 82.2883 711.597 81.9676C711.214 81.69 710.761 81.6299 710.4 81.6299V83.6299ZM710.205 83.2158V99.9883H712.212V83.2158H710.205ZM710.205 99.9883C710.205 100.126 710.173 100.044 710.278 99.9129C710.335 99.8407 710.412 99.7849 710.492 99.7518C710.565 99.7213 710.615 99.7207 710.62 99.7207V101.721C711.038 101.721 711.51 101.58 711.845 101.162C712.146 100.788 712.212 100.339 712.212 99.9883H710.205ZM710.62 99.7207H690.847V101.721H710.62V99.7207ZM689.844 100.722L689.99 186.269L691.997 186.266L691.851 100.719L689.844 100.722ZM689.99 186.269C689.99 186.406 689.959 186.323 690.064 186.192C690.122 186.12 690.198 186.064 690.277 186.031C690.351 186.001 690.402 186 690.406 186V188C690.823 188 691.296 187.859 691.631 187.442C691.932 187.067 691.997 186.619 691.997 186.268L689.99 186.269ZM718.559 186.268L717.555 186.265V186.268H718.559ZM718.853 83.2158L719.857 83.2187V83.2158H718.853ZM736.936 100.721V99.7207H735.932V100.721H736.936ZM736.936 124.012H735.932V125.012H736.936V124.012ZM768.396 124.744H767.393V124.753L768.396 124.744ZM768.544 141.736H769.547V141.728L768.544 141.736ZM736.936 142.322V141.322H735.932V142.322H736.936ZM736.2 186H719.295V188H736.2V186ZM719.295 186C719.204 186 719.321 185.978 719.452 186.11C719.585 186.241 719.563 186.358 719.563 186.268H717.555C717.555 186.666 717.656 187.148 718.033 187.524C718.41 187.9 718.894 188 719.295 188V186ZM719.563 186.27L719.857 83.2187L717.849 83.213L717.555 186.265L719.563 186.27ZM719.857 83.2158C719.857 83.1747 719.867 83.3275 719.71 83.4835C719.554 83.6395 719.4 83.6299 719.441 83.6299V81.6299C719.091 81.6299 718.643 81.7179 718.291 82.0693C717.938 82.4206 717.849 82.8664 717.849 83.2158H719.857ZM719.441 83.6299H767.662V81.6299H719.441V83.6299ZM767.662 83.6299C767.799 83.6299 767.717 83.6617 767.586 83.5572C767.513 83.4995 767.458 83.4234 767.425 83.3441C767.394 83.2708 767.393 83.2206 767.393 83.2158H769.4C769.4 82.7998 769.258 82.3294 768.84 81.9955C768.463 81.6957 768.014 81.6299 767.662 81.6299V83.6299ZM767.393 83.2158V100.135H769.4V83.2158H767.393ZM767.393 100.135C767.393 100.176 767.384 100.023 767.54 99.8671C767.697 99.7111 767.85 99.7207 767.808 99.7207V101.721C768.159 101.721 768.607 101.633 768.959 101.281C769.312 100.93 769.4 100.484 769.4 100.135H767.393ZM767.808 99.7207H736.936V101.721H767.808V99.7207ZM735.932 100.721V124.012H737.94V100.721H735.932ZM736.936 125.012H767.808V123.012H736.936V125.012ZM767.808 125.012C767.804 125.012 767.753 125.011 767.68 124.981C767.6 124.948 767.524 124.892 767.466 124.82C767.362 124.689 767.393 124.607 767.393 124.744H769.4C769.4 124.393 769.335 123.945 769.034 123.57C768.698 123.153 768.226 123.012 767.808 123.012V125.012ZM767.393 124.753L767.54 141.745L769.547 141.728L769.4 124.736L767.393 124.753ZM767.54 141.736C767.54 141.732 767.54 141.681 767.571 141.608C767.604 141.529 767.661 141.453 767.733 141.395C767.864 141.29 767.947 141.322 767.808 141.322V143.322C768.16 143.322 768.611 143.256 768.986 142.957C769.406 142.623 769.547 142.152 769.547 141.736H767.54ZM767.808 141.322H736.936V143.322H767.808V141.322ZM735.932 142.322V186.268H737.94V142.322H735.932ZM735.932 186.268C735.932 186.358 735.91 186.241 736.043 186.11C736.174 185.978 736.291 186 736.2 186V188C736.601 188 737.085 187.9 737.462 187.524C737.839 187.148 737.94 186.666 737.94 186.268H735.932ZM795.006 184.363L794.48 185.215L794.484 185.217L795.006 184.363ZM784.2 173.45L783.334 173.955L783.341 173.966L784.2 173.45ZM780.158 158.362L779.154 158.359V158.362H780.158ZM780.305 110.828L781.309 110.831V110.828H780.305ZM784.348 95.8135L785.207 96.3308L785.213 96.3197L784.348 95.8135ZM795.079 85.0469L795.594 85.9052L795.601 85.9011L795.079 85.0469ZM824.555 84.9736L824.028 85.8243L824.032 85.8269L824.555 84.9736ZM835.14 95.8135L834.272 96.3157L834.279 96.3266L835.14 95.8135ZM839.184 110.828H838.18V110.831L839.184 110.828ZM839.33 158.362H840.334V158.359L839.33 158.362ZM835.361 173.377L836.227 173.882L836.229 173.879L835.361 173.377ZM817.72 166.712L818.458 167.389L818.464 167.382L817.72 166.712ZM821.101 158.362H822.104V158.359L821.101 158.362ZM820.954 110.828H819.951V110.831L820.954 110.828ZM801.843 166.858L801.103 167.535L801.11 167.542L801.843 166.858ZM809.781 187.465C804.622 187.465 799.878 186.147 795.528 183.509L794.484 185.217C799.152 188.048 804.257 189.465 809.781 189.465V187.465ZM795.532 183.512C791.211 180.862 787.723 177.341 785.06 172.934L783.341 173.966C786.166 178.642 789.882 182.395 794.48 185.215L795.532 183.512ZM785.067 172.945C782.464 168.513 781.161 163.659 781.161 158.362H779.154C779.154 164.003 780.547 169.208 783.334 173.955L785.067 172.945ZM781.161 158.365L781.309 110.831L779.301 110.825L779.154 158.359L781.161 158.365ZM781.309 110.828C781.309 105.43 782.612 100.607 785.207 96.3308L783.489 95.2962C780.691 99.9069 779.301 105.093 779.301 110.828H781.309ZM785.213 96.3197C787.774 91.9731 791.23 88.505 795.594 85.9052L794.564 84.1886C789.913 86.9599 786.214 90.6695 783.483 95.3073L785.213 96.3197ZM795.601 85.9011C799.952 83.2623 804.672 81.9453 809.781 81.9453V79.9453C804.304 79.9453 799.224 81.3627 794.557 84.1927L795.601 85.9011ZM809.781 81.9453C815.096 81.9453 819.836 83.2433 824.028 85.8243L825.083 84.123C820.552 81.3329 815.442 79.9453 809.781 79.9453V81.9453ZM824.032 85.8269C828.298 88.424 831.709 91.9155 834.272 96.3157L836.008 95.3113C833.281 90.6295 829.635 86.8943 825.079 84.1204L824.032 85.8269ZM834.279 96.3266C836.877 100.655 838.18 105.481 838.18 110.828H840.188C840.188 105.14 838.796 99.9562 836.002 95.3004L834.279 96.3266ZM838.18 110.831L838.327 158.365L840.334 158.359L840.188 110.825L838.18 110.831ZM838.327 158.362C838.327 163.662 837.047 168.493 834.493 172.875L836.229 173.879C838.968 169.179 840.334 164 840.334 158.362H838.327ZM834.495 172.872C831.882 177.323 828.419 180.865 824.104 183.512L825.155 185.215C829.758 182.393 833.45 178.611 836.227 173.882L834.495 172.872ZM824.104 183.512C819.808 186.145 815.042 187.465 809.781 187.465V189.465C815.398 189.465 820.531 188.05 825.155 185.215L824.104 183.512ZM809.781 171.374C813.128 171.374 816.035 170.014 818.458 167.389L816.981 166.035C814.897 168.292 812.51 169.374 809.781 169.374V171.374ZM818.464 167.382C820.869 164.726 822.104 161.709 822.104 158.362H820.097C820.097 161.168 819.079 163.718 816.974 166.042L818.464 167.382ZM822.104 158.359L821.958 110.825L819.951 110.831L820.097 158.365L822.104 158.359ZM821.958 110.828C821.958 107.276 820.822 104.223 818.534 101.73L817.052 103.08C818.978 105.178 819.951 107.739 819.951 110.828H821.958ZM818.534 101.73C816.228 99.22 813.286 97.9629 809.781 97.9629V99.9629C812.745 99.9629 815.143 101.001 817.052 103.08L818.534 101.73ZM809.781 97.9629C806.417 97.9629 803.515 99.199 801.125 101.633L802.559 103.031C804.58 100.973 806.97 99.9629 809.781 99.9629V97.9629ZM801.125 101.633C798.719 104.083 797.531 107.174 797.531 110.828H799.538C799.538 107.646 800.555 105.073 802.559 103.031L801.125 101.633ZM797.531 110.828V158.362H799.538V110.828H797.531ZM797.531 158.362C797.531 161.882 798.726 164.956 801.103 167.535L802.581 166.182C800.548 163.975 799.538 161.385 799.538 158.362H797.531ZM801.11 167.542C803.496 170.078 806.403 171.374 809.781 171.374V169.374C806.984 169.374 804.599 168.327 802.574 166.174L801.11 167.542ZM850.724 186.268L849.721 186.266V186.268H850.724ZM850.871 83.3623L851.875 83.3637V83.3623H850.871ZM869.101 83.3623L870.104 83.364V83.3623H869.101ZM868.954 168.543L867.95 168.541L867.948 169.543H868.954V168.543ZM899.974 186H851.313V188H899.974V186ZM851.313 186C851.317 186 851.368 186.001 851.441 186.031C851.52 186.064 851.597 186.12 851.655 186.192C851.76 186.323 851.728 186.405 851.728 186.268H849.721C849.721 186.619 849.786 187.067 850.087 187.442C850.422 187.859 850.895 188 851.313 188V186ZM851.728 186.268L851.875 83.3637L849.867 83.3609L849.721 186.266L851.728 186.268ZM851.875 83.3623C851.875 83.2723 851.897 83.3885 851.764 83.5201C851.633 83.6517 851.516 83.6299 851.607 83.6299V81.6299C851.206 81.6299 850.722 81.7301 850.345 82.1059C849.968 82.4816 849.867 82.964 849.867 83.3623H851.875ZM851.607 83.6299H868.366V81.6299H851.607V83.6299ZM868.366 83.6299C868.456 83.6299 868.34 83.6517 868.207 83.5201C868.075 83.3885 868.097 83.2723 868.097 83.3623H870.104C870.104 82.964 870.004 82.4816 869.626 82.1059C869.249 81.7301 868.765 81.6299 868.366 81.6299V83.6299ZM868.097 83.3606L867.95 168.541L869.958 168.545L870.104 83.364L868.097 83.3606ZM868.954 169.543H899.974V167.543H868.954V169.543ZM899.974 169.543C900.064 169.543 899.947 169.565 899.815 169.433C899.683 169.302 899.705 169.185 899.705 169.275H901.712C901.712 168.877 901.611 168.395 901.234 168.019C900.858 167.643 900.373 167.543 899.974 167.543V169.543ZM899.705 169.275V186.268H901.712V169.275H899.705ZM899.705 186.268C899.705 186.358 899.683 186.241 899.815 186.11C899.947 185.978 900.064 186 899.974 186V188C900.373 188 900.858 187.9 901.234 187.524C901.611 187.148 901.712 186.666 901.712 186.268H899.705ZM910.559 186.268L909.555 186.266V186.268H910.559ZM910.705 83.2158L911.709 83.2172V83.2158H910.705ZM928.788 83.2158H927.785V83.2172L928.788 83.2158ZM928.935 186.268H929.938V186.266L928.935 186.268ZM928.347 186H911.293V188H928.347V186ZM911.293 186C911.203 186 911.319 185.978 911.452 186.11C911.584 186.241 911.562 186.358 911.562 186.268H909.555C909.555 186.666 909.655 187.148 910.033 187.524C910.41 187.9 910.894 188 911.293 188V186ZM911.562 186.268L911.709 83.2172L909.702 83.2144L909.555 186.266L911.562 186.268ZM911.709 83.2158C911.709 83.1747 911.719 83.3275 911.562 83.4835C911.406 83.6395 911.252 83.6299 911.293 83.6299V81.6299C910.943 81.6299 910.495 81.7179 910.143 82.0693C909.79 82.4206 909.702 82.8664 909.702 83.2158H911.709ZM911.293 83.6299H928.2V81.6299H911.293V83.6299ZM928.2 83.6299C928.241 83.6299 928.088 83.6395 927.931 83.4835C927.775 83.3275 927.785 83.1747 927.785 83.2158H929.792C929.792 82.8664 929.704 82.4206 929.35 82.0693C928.998 81.7179 928.55 81.6299 928.2 81.6299V83.6299ZM927.785 83.2172L927.931 186.269L929.938 186.266L929.792 83.2144L927.785 83.2172ZM927.931 186.269C927.931 186.406 927.899 186.323 928.004 186.192C928.063 186.12 928.139 186.064 928.218 186.031C928.291 186.001 928.343 186 928.347 186V188C928.764 188 929.237 187.859 929.572 187.442C929.873 187.067 929.938 186.619 929.938 186.268L927.931 186.269ZM955.25 184.363L954.725 185.215L954.729 185.217L955.25 184.363ZM944.445 173.45L943.578 173.955L943.585 173.966L944.445 173.45ZM940.402 158.362L939.398 158.359V158.362H940.402ZM940.55 110.828L941.553 110.831V110.828H940.55ZM944.592 95.8135L945.451 96.3308L945.457 96.3197L944.592 95.8135ZM955.324 85.0469L955.839 85.9052L955.846 85.9011L955.324 85.0469ZM984.802 84.9736L984.27 85.8243L984.28 85.8269L984.802 84.9736ZM995.39 95.8135L994.517 96.3157L994.527 96.3266L995.39 95.8135ZM999.424 110.828H998.421V110.831L999.424 110.828ZM999.575 158.362H1000.58V158.359L999.575 158.362ZM995.601 173.377L996.474 173.882V173.879L995.601 173.377ZM977.967 166.712L978.7 167.389L978.71 167.382L977.967 166.712ZM981.349 158.362H982.353V158.359L981.349 158.362ZM981.199 110.828H980.195V110.831L981.199 110.828ZM962.087 166.858L961.347 167.535L961.354 167.542L962.087 166.858ZM970.029 187.465C964.866 187.465 960.122 186.147 955.772 183.509L954.729 185.217C959.396 188.048 964.502 189.465 970.029 189.465V187.465ZM955.776 183.512C951.456 180.862 947.967 177.341 945.305 172.934L943.585 173.966C946.411 178.642 950.126 182.395 954.725 185.215L955.776 183.512ZM945.312 172.945C942.708 168.513 941.406 163.659 941.406 158.362H939.398C939.398 164.003 940.791 169.208 943.578 173.955L945.312 172.945ZM941.406 158.365L941.553 110.831L939.546 110.825L939.398 158.359L941.406 158.365ZM941.553 110.828C941.553 105.43 942.857 100.607 945.451 96.3308L943.733 95.2962C940.936 99.9069 939.546 105.093 939.546 110.828H941.553ZM945.457 96.3197C948.018 91.9731 951.475 88.505 955.839 85.9052L954.809 84.1886C950.157 86.9599 946.459 90.6695 943.726 95.3073L945.457 96.3197ZM955.846 85.9011C960.196 83.2623 964.92 81.9453 970.029 81.9453V79.9453C964.549 79.9453 959.469 81.3627 954.802 84.1927L955.846 85.9011ZM970.029 81.9453C975.338 81.9453 980.085 83.2433 984.27 85.8243L985.324 84.123C980.797 81.3329 975.689 79.9453 970.029 79.9453V81.9453ZM984.28 85.8269C988.545 88.424 991.957 91.9155 994.517 96.3157L996.253 95.3113C993.523 90.6295 989.88 86.8943 985.324 84.1204L984.28 85.8269ZM994.527 96.3266C997.116 100.655 998.421 105.481 998.421 110.828H1000.43C1000.43 105.14 999.043 99.9562 996.243 95.3004L994.527 96.3266ZM998.421 110.831L998.571 158.365L1000.58 158.359L1000.43 110.825L998.421 110.831ZM998.571 158.362C998.571 163.662 997.287 168.493 994.737 172.875L996.474 173.879C999.214 169.179 1000.58 164 1000.58 158.362H998.571ZM994.737 172.872C992.128 177.323 988.666 180.865 984.35 183.512L985.404 185.215C990 182.393 993.694 178.611 996.474 173.882L994.737 172.872ZM984.35 183.512C980.055 186.145 975.288 187.465 970.029 187.465V189.465C975.639 189.465 980.777 188.05 985.404 185.215L984.35 183.512ZM970.029 171.374C973.371 171.374 976.281 170.014 978.7 167.389L977.224 166.035C975.137 168.292 972.758 169.374 970.029 169.374V171.374ZM978.71 167.382C981.118 164.726 982.353 161.709 982.353 158.362H980.346C980.346 161.168 979.322 163.718 977.214 166.042L978.71 167.382ZM982.353 158.359L982.202 110.825L980.195 110.831L980.346 158.365L982.353 158.359ZM982.202 110.828C982.202 107.276 981.068 104.223 978.78 101.73L977.295 103.08C979.222 105.178 980.195 107.739 980.195 110.828H982.202ZM978.78 101.73C976.472 99.22 973.531 97.9629 970.029 97.9629V99.9629C972.989 99.9629 975.388 101.001 977.295 103.08L978.78 101.73ZM970.029 97.9629C966.666 97.9629 963.759 99.199 961.369 101.633L962.804 103.031C964.825 100.973 967.218 99.9629 970.029 99.9629V97.9629ZM961.369 101.633C958.964 104.083 957.775 107.174 957.775 110.828H959.783C959.783 107.646 960.799 105.073 962.804 103.031L961.369 101.633ZM957.775 110.828V158.362H959.783V110.828H957.775ZM957.775 158.362C957.775 161.882 958.971 164.956 961.347 167.535L962.826 166.182C960.792 163.975 959.783 161.385 959.783 158.362H957.775ZM961.354 167.542C963.74 170.078 966.646 171.374 970.029 171.374V169.374C967.229 169.374 964.844 168.327 962.819 166.174L961.354 167.542Z" fill="#F2F2F2"/>
</g>
</g>
<path d="M0 0.5H1080V80H0V0.5Z" fill="#F2F2F2"/>
<path d="M0 189H1080V268.5H0V189Z" fill="#F2F2F2"/>
<path d="M1000 79H1080V190H1000V79Z" fill="#F2F2F2"/>
<path d="M0 79H446V190H0V79Z" fill="#F2F2F2"/>
<path d="M788.75 233V209.4H789.95V233H788.75ZM791.15 233V209.4H793.55V233H791.15ZM797.15 233V209.4H798.35V233H797.15ZM792.43 236.48H794.59C795.363 236.48 795.963 236.587 796.39 236.8C796.843 237.013 797.23 237.333 797.55 237.76C798.163 238.56 798.47 239.693 798.47 241.16C798.417 242.68 798.07 243.827 797.43 244.6C796.79 245.4 795.79 245.787 794.43 245.76H792.43V236.48ZM794.35 244.96C796.403 244.96 797.43 243.72 797.43 241.24C797.43 239.987 797.203 239.027 796.75 238.36C796.27 237.693 795.523 237.36 794.51 237.36H793.43V244.96H794.35ZM801.953 233V209.4H803.153V233H801.953ZM806.753 233V209.4H809.153V233H806.753ZM810.353 233V209.4H811.553V233H810.353ZM805.713 236.48H811.393V237.4H806.673V240.44H810.593V241.4H806.673V244.84H811.353V245.76H805.713V236.48ZM815.156 233V209.4H818.756V233H815.156ZM819.956 233V209.4H821.156V233H819.956ZM822.356 233V209.4H824.756V233H822.356ZM818.396 236.48H819.476L821.876 243.6L824.116 236.48H825.156L822.036 245.8H821.556L818.396 236.48ZM828.359 233V209.4H829.559V233H828.359ZM833.159 233V209.4H835.559V233H833.159ZM836.759 233V209.4H837.959V233H836.759ZM832.119 236.48H837.799V237.4H833.079V240.44H836.999V241.4H833.079V244.84H837.759V245.76H832.119V236.48ZM841.562 233V209.4H842.763V233H841.562ZM846.363 233V209.4H848.763V233H846.363ZM849.963 233V209.4H853.563V233H849.963ZM845.443 236.48H846.643V236.6C846.589 236.653 846.549 236.72 846.523 236.8C846.523 236.853 846.523 236.973 846.523 237.16V244.88H850.963V245.76H845.443V236.48ZM854.766 233V209.4H855.966V233H854.766ZM859.566 233V209.4H863.166V233H859.566ZM864.366 233V209.4H866.766V233H864.366ZM861.366 245.92C860.299 245.92 859.486 245.507 858.926 244.68C858.339 243.853 858.046 242.68 858.046 241.16C858.046 239.693 858.339 238.533 858.926 237.68C859.512 236.853 860.326 236.44 861.366 236.44C862.406 236.44 863.219 236.853 863.806 237.68C864.392 238.533 864.686 239.693 864.686 241.16C864.686 242.68 864.392 243.853 863.806 244.68C863.246 245.507 862.432 245.92 861.366 245.92ZM861.366 245C862.086 245 862.632 244.68 863.006 244.04C863.406 243.373 863.606 242.413 863.606 241.16C863.606 239.987 863.406 239.053 863.006 238.36C862.606 237.693 862.059 237.36 861.366 237.36C860.672 237.36 860.126 237.693 859.726 238.36C859.326 239.053 859.126 239.987 859.126 241.16C859.126 242.413 859.312 243.373 859.686 244.04C860.086 244.68 860.646 245 861.366 245ZM867.969 233V209.4H871.569V233H867.969ZM872.769 233V209.4H876.369V233H872.769ZM877.569 233V209.4H879.969V233H877.569ZM871.729 236.48H874.689C875.675 236.48 876.409 236.733 876.889 237.24C877.395 237.72 877.649 238.347 877.649 239.12C877.649 239.867 877.409 240.48 876.929 240.96C876.449 241.44 875.729 241.68 874.769 241.68H872.809V245.76H871.729V236.48ZM874.649 240.76C875.315 240.76 875.795 240.613 876.089 240.32C876.409 240.053 876.569 239.667 876.569 239.16C876.569 238.653 876.409 238.253 876.089 237.96C875.769 237.64 875.302 237.48 874.689 237.48H872.809V240.76H874.649ZM881.172 233V209.4H883.572V233H881.172ZM884.772 233V209.4H887.172V233H884.772ZM889.572 233V209.4H891.972V233H889.572ZM894.375 233V209.4H895.575V233H894.375ZM897.975 233V209.4H900.375V233H897.975ZM902.775 233V209.4H903.975V233H902.775ZM902.615 244.64C902.322 245.04 901.948 245.347 901.495 245.56C901.042 245.8 900.575 245.92 900.095 245.92C899.668 245.92 899.282 245.813 898.935 245.6C898.562 245.387 898.282 245.12 898.095 244.8C897.882 244.453 897.775 244.08 897.775 243.68C897.775 243.067 897.948 242.493 898.295 241.96C898.642 241.427 899.095 240.987 899.655 240.64C898.962 239.813 898.615 239.053 898.615 238.36C898.615 237.987 898.708 237.653 898.895 237.36C899.082 237.067 899.322 236.827 899.615 236.64C899.935 236.48 900.282 236.4 900.655 236.4C901.028 236.4 901.375 236.493 901.695 236.68C901.988 236.867 902.228 237.107 902.415 237.4C902.575 237.693 902.655 238.013 902.655 238.36C902.655 238.84 902.508 239.32 902.215 239.8C901.895 240.307 901.508 240.653 901.055 240.84L902.695 243.2C902.935 242.907 903.108 242.653 903.215 242.44C903.295 242.227 903.348 241.973 903.375 241.68C903.375 241.627 903.402 241.573 903.455 241.52L904.415 242.2C904.042 242.84 903.668 243.413 903.295 243.92L904.335 245.28L903.455 245.92L902.615 244.64ZM900.535 240.2C900.882 240.04 901.162 239.787 901.375 239.44C901.562 239.12 901.655 238.787 901.655 238.44C901.655 238.12 901.562 237.84 901.375 237.6C901.162 237.387 900.922 237.28 900.655 237.28C900.362 237.28 900.122 237.387 899.935 237.6C899.722 237.787 899.615 238.04 899.615 238.36C899.615 238.84 899.922 239.453 900.535 240.2ZM900.215 244.96C900.855 244.96 901.468 244.613 902.055 243.92L900.175 241.36C899.802 241.6 899.495 241.92 899.255 242.32C899.042 242.72 898.935 243.107 898.935 243.48C898.935 243.907 899.055 244.253 899.295 244.52C899.562 244.813 899.868 244.96 900.215 244.96ZM907.578 233V209.4H909.978V233H907.578ZM911.178 233V209.4H913.578V233H911.178ZM915.978 233V209.4H918.378V233H915.978ZM920.781 233V209.4H921.981V233H920.781ZM923.181 233V209.4H925.581V233H923.181ZM929.181 233V209.4H930.381V233H929.181ZM924.461 236.48H926.621C927.395 236.48 927.995 236.587 928.421 236.8C928.875 237.013 929.261 237.333 929.581 237.76C930.195 238.56 930.501 239.693 930.501 241.16C930.448 242.68 930.101 243.827 929.461 244.6C928.821 245.4 927.821 245.787 926.461 245.76H924.461V236.48ZM926.381 244.96C928.435 244.96 929.461 243.72 929.461 241.24C929.461 239.987 929.235 239.027 928.781 238.36C928.301 237.693 927.555 237.36 926.541 237.36H925.461V244.96H926.381ZM933.984 233V209.4H935.184V233H933.984ZM938.784 233V209.4H941.184V233H938.784ZM942.384 233V209.4H943.584V233H942.384ZM937.744 236.48H943.424V237.4H938.704V240.44H942.624V241.4H938.704V244.84H943.384V245.76H937.744V236.48ZM947.188 233V209.4H949.588V233H947.188ZM950.788 233V209.4H954.388V233H950.788ZM955.588 233V209.4H956.788V233H955.588ZM953.748 245.92C952.548 245.92 951.574 245.52 950.828 244.72L951.388 243.8L951.428 243.68L951.548 243.72C951.548 243.747 951.561 243.8 951.588 243.88C951.588 243.933 951.614 244 951.668 244.08C951.694 244.133 951.748 244.187 951.828 244.24C952.388 244.72 953.081 244.96 953.908 244.96C954.441 244.96 954.894 244.813 955.268 244.52C955.641 244.2 955.828 243.827 955.828 243.4C955.828 243.107 955.761 242.853 955.628 242.64C955.521 242.453 955.321 242.267 955.028 242.08C954.734 241.893 954.281 241.667 953.668 241.4C952.761 241.053 952.108 240.653 951.708 240.2C951.334 239.747 951.148 239.24 951.148 238.68C951.148 237.987 951.401 237.427 951.908 237C952.414 236.573 953.094 236.36 953.948 236.36C954.454 236.36 954.934 236.467 955.388 236.68C955.814 236.893 956.201 237.173 956.548 237.52L955.868 238.44L955.788 238.36C955.788 238.333 955.774 238.293 955.748 238.24C955.748 238.16 955.721 238.093 955.668 238.04C955.641 237.96 955.588 237.893 955.508 237.84C955.294 237.627 955.041 237.467 954.748 237.36C954.481 237.28 954.161 237.24 953.788 237.24C953.308 237.24 952.934 237.373 952.668 237.64C952.374 237.907 952.228 238.227 952.228 238.6C952.228 238.893 952.281 239.147 952.388 239.36C952.521 239.573 952.748 239.773 953.067 239.96C953.388 240.173 953.868 240.4 954.508 240.64C955.388 241.013 956.001 241.387 956.348 241.76C956.668 242.16 956.828 242.653 956.828 243.24C956.828 243.693 956.721 244.12 956.508 244.52C956.268 244.92 955.921 245.253 955.468 245.52C954.988 245.787 954.414 245.92 953.748 245.92ZM960.391 233V209.4H962.791V233H960.391ZM966.391 233V209.4H967.591V233H966.391ZM971.191 233V209.4H972.391V233H971.191ZM964.471 244.88H966.311V237.36H964.591V236.48H969.191V237.36H967.351V244.88H969.271V245.76H964.471V244.88ZM973.594 233V209.4H975.994V233H973.594ZM977.194 233V209.4H978.394V233H977.194ZM981.994 233V209.4H983.194V233H981.994ZM980.594 245.92C979.847 245.92 979.207 245.72 978.674 245.32C978.14 244.947 977.727 244.4 977.434 243.68C977.14 242.987 976.994 242.173 976.994 241.24C976.994 240.013 977.18 239.04 977.554 238.32C977.927 237.6 978.38 237.093 978.914 236.8C979.447 236.533 979.98 236.4 980.514 236.4C981.074 236.4 981.607 236.547 982.114 236.84C982.647 237.107 983.034 237.48 983.274 237.96L982.554 238.52L982.434 238.64L982.394 238.56C982.394 238.48 982.38 238.4 982.354 238.32C982.3 238.267 982.22 238.173 982.114 238.04C981.874 237.773 981.634 237.587 981.394 237.48C981.154 237.373 980.86 237.32 980.514 237.32C979.794 237.32 979.194 237.6 978.714 238.16C978.26 238.747 978.034 239.693 978.034 241C978.034 242.28 978.26 243.267 978.714 243.96C979.167 244.653 979.794 245 980.594 245C980.887 245 981.194 244.947 981.514 244.84C981.86 244.76 982.14 244.627 982.354 244.44V242.24H980.674V241.32H983.314V244.96C982.434 245.6 981.527 245.92 980.594 245.92ZM986.797 233V209.4H987.997V233H986.797ZM989.197 233V209.4H992.797V233H989.197ZM996.397 233V209.4H998.797V233H996.397ZM990.437 236.48H991.437L995.317 243.36V236.48H996.477V236.6C996.397 236.653 996.357 236.72 996.357 236.8C996.33 236.853 996.317 236.973 996.317 237.16V245.76H995.517L991.397 238.48V245.76H990.437V236.48Z" fill="#262626"/>
<defs>
<clipPath id="clip0_14_32">
<rect width="556" height="111" fill="white" transform="translate(445 79)"/>
</clipPath>
</defs>
</svg>
